<svg xmlns="http://www.w3.org/2000/svg" width="30" height="30" viewBox="0 0 30 30">
  <g id="组_1236" data-name="组 1236" transform="translate(3758 -5923)">
    <circle id="椭圆_319" data-name="椭圆 319" cx="15" cy="15" r="15" transform="translate(-3758 5923)"/>
    <path id="广场" d="M69.364,56.977A9.408,9.408,0,0,1,56.427,69a40.632,40.632,0,0,0,7.082-5.438,42.438,42.438,0,0,0,5.616-6.243l.238-.345ZM60.682,51.2a9.37,9.37,0,0,1,4.98,1.425c1.638-.9,2.845-1.215,3.29-.738.985,1.056-2.153,5.582-7.01,10.11s-9.59,7.344-10.574,6.288c-.45-.481-.042-1.683,1-3.278A9.408,9.408,0,0,1,60.682,51.2Z" transform="translate(-3804.187 5877.049)" fill="#cb1f1f"/>
    <path id="广场-2" data-name="广场" d="M69.364,56.977A9.408,9.408,0,0,1,56.427,69a40.632,40.632,0,0,0,7.082-5.438,42.438,42.438,0,0,0,5.616-6.243l.238-.345ZM60.682,51.2a9.37,9.37,0,0,1,4.98,1.425c1.638-.9,2.845-1.215,3.29-.738.985,1.056-2.153,5.582-7.01,10.11s-9.59,7.344-10.574,6.288c-.45-.481-.042-1.683,1-3.278A9.408,9.408,0,0,1,60.682,51.2Z" transform="translate(-3802.187 5877.049)" fill="#1ac758"/>
    <path id="广场-3" data-name="广场" d="M69.364,56.977A9.408,9.408,0,0,1,56.427,69a40.632,40.632,0,0,0,7.082-5.438,42.438,42.438,0,0,0,5.616-6.243l.238-.345ZM60.682,51.2a9.37,9.37,0,0,1,4.98,1.425c1.638-.9,2.845-1.215,3.29-.738.985,1.056-2.153,5.582-7.01,10.11s-9.59,7.344-10.574,6.288c-.45-.481-.042-1.683,1-3.278A9.408,9.408,0,0,1,60.682,51.2Z" transform="translate(-3803.187 5877.049)" fill="#fff"/>
  </g>
</svg>
