<svg xmlns="http://www.w3.org/2000/svg" width="30" height="30" viewBox="0 0 30 30">
  <g id="组_1233" data-name="组 1233" transform="translate(3826 -5923)">
    <circle id="椭圆_318" data-name="椭圆 318" cx="15" cy="15" r="15" transform="translate(-3826 5923)"/>
    <g id="组_1135" data-name="组 1135" transform="translate(-287.507 3500.582)">
      <g id="首页" transform="translate(-3531.493 2428)">
        <path id="路径_174" data-name="路径 174" d="M402.885,658.286h3.368a.6.6,0,1,1,0,1.2h-3.368a.59.59,0,0,1-.6-.6A.551.551,0,0,1,402.885,658.286Z" transform="translate(-395.551 -646.406)" fill="#1ac759"/>
        <path id="路径_173" data-name="路径 173" d="M88.11,95.58H76.136a3,3,0,0,1-2.993-2.993V84.729a2.79,2.79,0,0,1,1.272-2.395L80.4,78.218a3.058,3.058,0,0,1,3.368,0l5.987,4.116a2.92,2.92,0,0,1,1.272,2.47v7.783A2.893,2.893,0,0,1,88.11,95.58ZM75.089,83.232a1.853,1.853,0,0,0-.823,1.572v7.783a1.853,1.853,0,0,0,1.871,1.871H88.11a1.853,1.853,0,0,0,1.871-1.871V84.729a1.952,1.952,0,0,0-.823-1.572l-5.987-4.116a1.8,1.8,0,0,0-2.1,0l-5.987,4.191Z" transform="translate(-73.143 -77.713)" fill="#1ac759" stroke="#1ac759" stroke-width="0.5"/>
      </g>
    </g>
    <g id="组_1136" data-name="组 1136" transform="translate(-289.507 3500.582)">
      <g id="首页-2" data-name="首页" transform="translate(-3531.493 2428)">
        <path id="路径_174-2" data-name="路径 174" d="M402.885,658.286h3.368a.6.6,0,1,1,0,1.2h-3.368a.59.59,0,0,1-.6-.6A.551.551,0,0,1,402.885,658.286Z" transform="translate(-395.551 -646.406)" fill="#cb1f1f"/>
        <path id="路径_173-2" data-name="路径 173" d="M88.11,95.58H76.136a3,3,0,0,1-2.993-2.993V84.729a2.79,2.79,0,0,1,1.272-2.395L80.4,78.218a3.058,3.058,0,0,1,3.368,0l5.987,4.116a2.92,2.92,0,0,1,1.272,2.47v7.783A2.893,2.893,0,0,1,88.11,95.58ZM75.089,83.232a1.853,1.853,0,0,0-.823,1.572v7.783a1.853,1.853,0,0,0,1.871,1.871H88.11a1.853,1.853,0,0,0,1.871-1.871V84.729a1.952,1.952,0,0,0-.823-1.572l-5.987-4.116a1.8,1.8,0,0,0-2.1,0l-5.987,4.191Z" transform="translate(-73.143 -77.713)" fill="#cb1f1f" stroke="#cb1f1f" stroke-width="0.5"/>
      </g>
    </g>
    <path id="联合_114" data-name="联合 114" d="M2.993,17.867A3,3,0,0,1,0,14.873V7.016A2.792,2.792,0,0,1,1.272,4.621L7.259.5a3.058,3.058,0,0,1,3.367,0l5.987,4.116a2.921,2.921,0,0,1,1.273,2.47v7.783a2.893,2.893,0,0,1-2.919,2.993Z" transform="translate(-3820 5928.582)" fill="#fff" stroke="#fff" stroke-width="0.5"/>
    <path id="路径_174-3" data-name="路径 174" d="M402.947,658.286h3.717a.661.661,0,1,1,0,1.322h-3.717a.652.652,0,0,1-.661-.661A.608.608,0,0,1,402.947,658.286Z" transform="translate(-4215.788 5282.114)" fill="#cb1f1f"/>
  </g>
</svg>
