<svg xmlns="http://www.w3.org/2000/svg" width="30" height="30" viewBox="0 0 30 30">
  <g id="组_1233" data-name="组 1233" transform="translate(3826 -5923)">
    <circle id="椭圆_318" data-name="椭圆 318" cx="15" cy="15" r="15" transform="translate(-3826 5923)"/>
    <path id="联合_114" data-name="联合 114" d="M2.993,17.867A3,3,0,0,1,0,14.873V7.016A2.792,2.792,0,0,1,1.272,4.621L7.259.5a3.058,3.058,0,0,1,3.367,0l5.987,4.116a2.921,2.921,0,0,1,1.273,2.47v7.783a2.893,2.893,0,0,1-2.919,2.993Z" transform="translate(-3820 5928.582)" fill="#fff" stroke="#fff" stroke-width="0.5"/>
    <path id="路径_174" data-name="路径 174" d="M402.947,658.286h3.717a.661.661,0,1,1,0,1.322h-3.717a.652.652,0,0,1-.661-.661A.608.608,0,0,1,402.947,658.286Z" transform="translate(-4215.788 5282.114)"/>
  </g>
</svg>
