<svg xmlns="http://www.w3.org/2000/svg" width="30" height="30" viewBox="0 0 30 30">
  <g id="组_1234" data-name="组 1234" transform="translate(3600 -5923)">
    <circle id="椭圆_320" data-name="椭圆 320" cx="15" cy="15" r="15" transform="translate(-3600 5923)"/>
    <path id="联合_116" data-name="联合 116" d="M1.927,19.54a.5.5,0,0,1-.444-.3.641.641,0,0,1,.025-.589L2.744,16.53A9.623,9.623,0,0,1,0,9.77,9.832,9.832,0,1,1,9.832,19.54Zm.941-1.149h.018l.021-.067Z" transform="translate(-3595 5927.717)" fill="#cb1f1f"/>
    <path id="联合_117" data-name="联合 117" d="M1.927,19.54a.5.5,0,0,1-.444-.3.641.641,0,0,1,.025-.589L2.744,16.53A9.623,9.623,0,0,1,0,9.77,9.832,9.832,0,1,1,9.832,19.54Zm.941-1.149h.018l.021-.067Z" transform="translate(-3593 5927.717)" fill="#1ac758"/>
    <path id="联合_113" data-name="联合 113" d="M1.927,19.54a.5.5,0,0,1-.444-.3.641.641,0,0,1,.025-.589L2.744,16.53A9.623,9.623,0,0,1,0,9.77,9.832,9.832,0,1,1,9.832,19.54Zm.941-1.149h.018l.021-.067Z" transform="translate(-3594 5927.717)" fill="#fff"/>
    <g id="组_1047" data-name="组 1047" transform="translate(-3590 5937.09)">
      <path id="减去_72" data-name="减去 72" d="M.757,2.084A.729.729,0,0,1,0,1.389V.695A.729.729,0,0,1,.757,0a.729.729,0,0,1,.757.695v.694A.729.729,0,0,1,.757,2.084Z" transform="translate(0 0)" fill="#cb1f1f"/>
      <path id="减去_73" data-name="减去 73" d="M.757,2.084A.729.729,0,0,1,0,1.389V.695A.729.729,0,0,1,.757,0a.729.729,0,0,1,.757.695v.694A.729.729,0,0,1,.757,2.084Z" transform="translate(4.952 0)" fill="#cb1f1f"/>
      <path id="减去_74" data-name="减去 74" d="M.757,2.084A.729.729,0,0,1,0,1.389V.695A.729.729,0,0,1,.757,0a.729.729,0,0,1,.757.695v.694A.729.729,0,0,1,.757,2.084Z" transform="translate(9.903 0)" fill="#cb1f1f"/>
    </g>
  </g>
</svg>
