<svg xmlns="http://www.w3.org/2000/svg" width="30" height="30" viewBox="0 0 30 30">
  <g id="组_1235" data-name="组 1235" transform="translate(3530 -5923)">
    <circle id="椭圆_321" data-name="椭圆 321" cx="15" cy="15" r="15" transform="translate(-3530 5923)"/>
    <g id="组_1148" data-name="组 1148" transform="translate(-1)">
      <g id="联合_115" data-name="联合 115" transform="translate(-3522 5929)" fill="#fff">
        <path d="M 8.000100135803223 14.25030040740967 C 4.00238037109375 14.25030040740967 0.7500001192092896 11.22199058532715 0.7500001192092896 7.49970006942749 C 0.7500001192092896 3.777900218963623 4.00238037109375 0.7500001788139343 8.000100135803223 0.7500001788139343 C 11.9978199005127 0.7500001788139343 15.25020027160645 3.777900218963623 15.25020027160645 7.49970006942749 C 15.25020027160645 11.22199058532715 11.9978199005127 14.25030040740967 8.000100135803223 14.25030040740967 Z" stroke="none"/>
        <path d="M 8.000100135803223 1.5 C 4.415929794311523 1.5 1.5 4.191450119018555 1.5 7.49970006942749 C 1.5 10.80844020843506 4.415929794311523 13.50030040740967 8.000100135803223 13.50030040740967 C 11.58427047729492 13.50030040740967 14.50020027160645 10.80844020843506 14.50020027160645 7.49970006942749 C 14.50020027160645 4.191450119018555 11.58427047729492 1.5 8.000100135803223 1.5 M 8.000100135803223 0 C 12.41820049285889 0 16.00020027160645 3.357900619506836 16.00020027160645 7.49970006942749 C 16.00020027160645 11.64240074157715 12.41820049285889 15.00030040740967 8.000100135803223 15.00030040740967 C 3.581999778747559 15.00030040740967 0 11.64240074157715 0 7.49970006942749 C 0 3.357900619506836 3.581999778747559 0 8.000100135803223 0 Z" stroke="none" fill="#fff"/>
      </g>
      <ellipse id="椭圆_324" data-name="椭圆 324" cx="8" cy="3.5" rx="8" ry="3.5" transform="translate(-3522 5942)" fill="#fff"/>
    </g>
    <path id="路径_185" data-name="路径 185" d="M360.428,424.237a.763.763,0,0,1-.791-.726v-.726a.794.794,0,0,1,1.583,0v.726A.763.763,0,0,1,360.428,424.237Zm-4.906,0a.763.763,0,0,1-.791-.726v-.726a.794.794,0,0,1,1.583,0v.726A.763.763,0,0,1,355.522,424.237Z" transform="translate(-3874.415 5513.171)"/>
  </g>
</svg>
