<svg xmlns="http://www.w3.org/2000/svg" width="90" height="90" viewBox="0 0 90 90">
  <g id="组_1483" data-name="组 1483" transform="translate(-225 -445)">
    <circle id="椭圆_299" data-name="椭圆 299" cx="45" cy="45" r="45" transform="translate(225 445)" fill="#f4f4f4"/>
    <g id="发表" transform="translate(229.412 450.372)">
      <g id="路径_237" data-name="路径 237" transform="translate(0)">
        <path d="M 20.94982528686523 66.87088012695313 C 18.52602386474609 66.87088012695313 17.10802459716797 65.75694274902344 16.34527397155762 64.82246398925781 C 15.26619434356689 63.47359466552734 14.87783527374268 61.74627685546875 15.1940450668335 59.69230651855469 L 15.194504737854 59.68930816650391 L 15.19492435455322 59.68630599975586 C 15.28897476196289 59.02192687988281 15.47050476074219 58.22299575805664 15.78352451324463 57.0958366394043 C 16.04163551330566 56.18634796142578 16.31030464172363 55.26316833496094 16.58133506774902 54.35464477539063 C 16.84919548034668 53.44508743286133 17.13608551025391 52.52943801879883 17.43452453613281 51.63144683837891 C 17.75072479248047 50.67831802368164 18.00828552246094 50.02413558959961 18.26975440979004 49.51007461547852 L 18.27609443664551 49.49758529663086 L 18.28173446655273 49.48477554321289 C 18.54365539550781 48.88954544067383 18.85554504394531 48.31087493896484 19.20877456665039 47.76483535766602 C 19.61476516723633 47.13445663452148 20.13686561584473 46.50343704223633 20.80544471740723 45.83486557006836 L 20.80789566040039 45.83241653442383 L 20.81030464172363 45.82993698120117 L 20.97628402709961 45.65929794311523 L 22.15426445007324 44.4549674987793 C 22.80015563964844 43.78588485717773 23.62091445922852 42.95449829101563 24.90097427368164 41.67263793945313 L 28.47866439819336 38.07942581176758 L 32.44977569580078 34.09279632568359 L 42.98891448974609 23.5133171081543 L 42.9908447265625 23.51137733459473 L 42.99275588989258 23.50940704345703 L 43.23162460327148 23.26430702209473 L 43.57388305664063 22.91312599182129 L 43.47457122802734 22.81250190734863 L 46.06904983520508 20.41595840454102 L 46.07018661499023 20.41696548461914 L 46.40308380126953 20.10794639587402 L 46.79245376586914 19.74650573730469 C 47.24921417236328 19.32690620422363 47.7091064453125 18.89690589904785 48.15743637084961 18.47020721435547 C 48.74114608764648 17.91876602172852 49.26475524902344 17.45204734802246 49.71238327026367 17.08429718017578 L 49.76752471923828 17.03836250305176 L 49.82035446166992 16.99580574035645 C 51.33909606933594 15.79260635375977 53.24657440185547 15.128586769104 55.1882438659668 15.128586769104 L 55.19327545166016 15.128586769104 C 56.12954330444336 15.13645648956299 57.06339645385742 15.27569675445557 57.96497344970703 15.54239654541016 C 58.61375427246094 15.73484420776367 59.24941253662109 15.98716640472412 59.85391998291016 16.29222679138184 C 60.99423217773438 16.89116859436035 62.12138366699219 17.80174446105957 63.29948425292969 19.07575607299805 C 64.3963623046875 20.24766731262207 65.29871368408203 21.57515716552734 65.98352813720703 23.0235767364502 L 65.98759460449219 23.03219604492188 L 65.99200439453125 23.0406665802002 L 66.00462341308594 23.06490898132324 L 66.01504516601563 23.08862686157227 C 66.28208160400391 23.69682693481445 66.482421875 24.33590698242188 66.61039733886719 24.9879264831543 L 67.59930419921875 24.85010719299316 L 66.61178588867188 24.99382591247559 C 66.75691223144531 25.67794609069824 66.83049774169922 26.39458656311035 66.83049774169922 27.12385559082031 C 66.83049774169922 28.08585548400879 66.65179443359375 29.03677558898926 66.29936218261719 29.95017623901367 C 65.9234619140625 30.92315673828125 65.37264251708984 31.80397605895996 64.66227722167969 32.56796646118164 L 64.65911102294922 32.57136535644531 L 64.65602111816406 32.5748176574707 L 64.60205078125 32.63507080078125 L 64.54132843017578 32.69326782226563 L 64.53711700439453 32.69730758666992 L 64.53299713134766 32.70143508911133 C 64.18431854248047 33.05156707763672 63.81631469726563 33.41300582885742 63.40796661376953 33.80641555786133 C 63.15865325927734 34.0433349609375 62.90716552734375 34.28849792480469 62.66292572021484 34.53271484375 C 62.3542366027832 34.83988571166992 62.03511428833008 35.13862609863281 61.71528625488281 35.41977691650391 L 61.67628479003906 35.45409774780273 L 61.27642440795898 35.80600738525391 L 61.31116104125977 35.84077453613281 L 58.26293563842773 38.90012741088867 L 47.74080657958984 49.46414566040039 L 43.81577301025391 53.44813537597656 L 43.81234359741211 53.45161819458008 L 43.80898666381836 53.45516586303711 L 43.79006195068359 53.47513961791992 L 43.76863479614258 53.4954948425293 L 43.76579666137695 53.49819564819336 L 43.76299667358398 53.50093460083008 C 42.28969573974609 54.94524765014648 41.21785354614258 56.01565551757813 40.28762435913086 56.97167587280273 L 37.66079330444336 59.63258743286133 C 36.89662551879883 60.39370727539063 36.50136566162109 60.77838516235352 36.18722534179688 61.03796768188477 L 36.17946624755859 61.04437637329102 L 36.17197418212891 61.05109786987305 C 35.79156494140625 61.39209747314453 35.36821365356445 61.74051666259766 34.9136848449707 62.08667755126953 C 34.23745346069336 62.61210632324219 33.51832580566406 63.04777526855469 32.77243423461914 63.38454818725586 L 32.76910400390625 63.38604736328125 L 32.76579666137695 63.38759613037109 C 32.00214385986328 63.74591827392578 31.21323394775391 64.07419586181641 30.42095565795898 64.36333465576172 C 29.46384429931641 64.71523284912109 28.47565460205078 65.05707550048828 27.48270416259766 65.37978363037109 C 26.5042552947998 65.69761657714844 25.50373458862305 65.99249267578125 24.50900459289551 66.25621795654297 C 23.44293403625488 66.53491973876953 22.71181488037109 66.69919586181641 22.14008522033691 66.78843688964844 L 22.05315399169922 66.80223083496094 L 21.9658145904541 66.81178283691406 C 21.61950492858887 66.85107421875 21.27834510803223 66.87088012695313 20.94982528686523 66.87088012695313 Z M 18.97850036621094 60.21591567993164 C 18.82538604736328 61.21692276000977 18.93973922729492 61.93896102905273 19.32804489135742 62.42333602905273 C 19.65748405456543 62.82847595214844 20.20188522338867 63.03252792358398 20.94830513000488 63.03252792358398 C 21.13975524902344 63.03252792358398 21.33783531188965 63.0210075378418 21.53704452514648 62.99828720092773 L 21.5472240447998 62.99712753295898 L 21.55735397338867 62.99554824829102 C 21.98089408874512 62.9295654296875 22.61273574829102 62.78532791137695 23.54579544067383 62.5416145324707 C 24.38521575927734 62.32198715209961 25.29207420349121 62.0545654296875 26.31841468811035 61.72402572631836 C 27.26406478881836 61.41618728637695 28.20167541503906 61.09156799316406 29.10670471191406 60.75870513916016 C 29.99149322509766 60.42749404907227 30.6796760559082 60.14155960083008 31.15505599975586 59.90776062011719 C 31.66021919250488 59.68289184570313 32.13687133789063 59.39590835571289 32.57200622558594 59.05464935302734 C 33.0185432434082 58.71395111083984 33.39164352416992 58.40500640869141 33.71155548095703 58.11102676391602 C 33.87388229370117 57.98706436157227 34.19889068603516 57.6752815246582 34.97256469726563 56.90333557128906 C 35.90809631347656 55.95945739746094 36.75802612304688 55.09836578369141 37.57288360595703 54.26886749267578 C 38.54473495483398 53.27397537231445 39.66324615478516 52.15745544433594 41.09386444091797 50.75409698486328 L 41.09694290161133 50.75106811523438 L 41.0999755859375 50.74799728393555 L 44.90715408325195 46.88210296630859 L 45.02112579345703 46.76789474487305 L 55.56181335449219 36.18532562255859 L 55.91240310668945 35.83334732055664 L 55.56269454956055 35.48050689697266 L 46.39482498168945 26.23044586181641 L 46.04057312011719 25.87301635742188 L 45.68544387817383 26.22956657409668 L 35.14783477783203 36.80907821655273 L 31.17665481567383 40.79575729370117 L 27.59940528869629 44.38851547241211 C 26.49347496032715 45.49604797363281 25.61052513122559 46.38541793823242 24.89778518676758 47.12438583374023 C 24.4880542755127 47.54472732543945 24.16163444519043 47.87772750854492 23.92125511169434 48.12295532226563 C 23.74330711364746 48.30449676513672 23.61221313476563 48.438232421875 23.52833557128906 48.52475357055664 C 23.03570175170898 49.01928329467773 22.66985130310059 49.45523452758789 22.40999412536621 49.85743713378906 C 22.15391731262207 50.24964904785156 21.92059898376465 50.68936920166016 21.71758842468262 51.16281509399414 C 21.54034614562988 51.48811721801758 21.32945823669434 52.02528762817383 21.05559539794922 52.84850692749023 C 20.79958534240723 53.61344528198242 20.5334644317627 54.46488571166992 20.24230575561523 55.45062637329102 C 19.99910545349121 56.26715469360352 19.74916458129883 57.12660598754883 19.45606422424316 58.154296875 C 19.20246505737305 59.06365966796875 19.04648590087891 59.7371826171875 18.97850036621094 60.21591567993164 Z M 55.21279525756836 18.96856689453125 C 54.71164321899414 18.96856689453125 54.21467590332031 19.04330635070801 53.73568344116211 19.19071578979492 C 53.20043563842773 19.35042572021484 52.66702651977539 19.63469696044922 52.15437316894531 20.03438568115234 L 52.1482048034668 20.0391960144043 L 52.14219665527344 20.04419708251953 C 51.74592590332031 20.37358665466309 51.28401565551758 20.78657722473145 50.76928329467773 21.2717170715332 C 50.32544326782227 21.69463729858398 49.8580436706543 22.13139724731445 49.37808609008789 22.57174682617188 L 48.99413299560547 22.92400550842285 L 49.36192321777344 23.29310607910156 L 58.53133392333984 32.49506759643555 L 58.86245346069336 32.82735824584961 L 59.21516418457031 32.5180778503418 C 59.47484588623047 32.29036712646484 59.73002624511719 32.05083465576172 59.97361373901367 31.80613708496094 C 60.21934509277344 31.55894660949707 60.47978591918945 31.30502700805664 60.77005386352539 31.02962684631348 C 61.12017440795898 30.69325637817383 61.46755599975586 30.35251617431641 61.83429336547852 29.98577690124512 L 61.83893585205078 29.98113632202148 L 61.84345626831055 29.97637557983398 C 62.22661590576172 29.57255554199219 62.5250244140625 29.10547637939453 62.73039627075195 28.58810615539551 L 62.76567459106445 28.49924659729004 L 62.76567459106445 28.49262809753418 C 62.92731857299805 28.04607391357422 63.00921630859375 27.58606910705566 63.00921630859375 27.12387657165527 C 63.00921630859375 26.66007232666016 62.96408081054688 26.2126350402832 62.87506103515625 25.79390907287598 C 62.79182434082031 25.37062072753906 62.67472839355469 24.98771095275879 62.52702331542969 24.65578651428223 L 62.52524566650391 24.65178680419922 L 62.52339553833008 24.6478157043457 C 62.04032516479492 23.61149597167969 61.35993576049805 22.61577606201172 60.50113296508789 21.68832588195801 C 59.63667297363281 20.75305557250977 58.82356643676758 20.08206558227539 58.08471298217773 19.6943359375 L 58.08120346069336 19.69249725341797 L 58.07767486572266 19.69071578979492 C 57.73014450073242 19.51529693603516 57.32769393920898 19.35873603820801 56.84733581542969 19.21210670471191 C 56.37997436523438 19.07385635375977 55.87752532958984 18.99298667907715 55.34979629516602 18.97049713134766 L 55.34554290771484 18.97031593322754 L 55.34129333496094 18.97020721435547 C 55.29843521118164 18.9691162109375 55.25563430786133 18.96856689453125 55.21279525756836 18.96856689453125 Z" stroke="none"/>
        <path d="M 55.18819427490234 15.62858581542969 C 53.36003112792969 15.62858581542969 51.56390380859375 16.25348663330078 50.13043975830078 17.38806915283203 L 50.08455276489258 17.42502593994141 L 50.03507232666016 17.46624755859375 L 50.03244400024414 17.46843719482422 L 50.02979278564453 17.47061920166016 C 49.59093475341797 17.83116912841797 49.07606506347656 18.29019546508789 48.50212478637695 18.83240509033203 C 48.05179595947266 19.26099014282227 47.59030914306641 19.6924934387207 47.13040924072266 20.11499404907227 L 46.74325561523438 20.47438812255859 L 46.07719421386719 21.09268569946289 L 46.0752067565918 21.09091949462891 L 44.19346618652344 22.82910919189453 L 44.27421569824219 22.91092681884766 L 43.58970642089844 23.61328506469727 L 43.35083389282227 23.8583869934082 L 43.34700393676758 23.8623046875 L 43.34314346313477 23.86618804931641 L 32.80401611328125 34.4456672668457 L 28.83298492431641 38.43220520019531 L 25.25477600097656 42.02593612670898 C 23.97681427001953 43.30569458007813 23.1578254699707 44.13527679443359 22.51630401611328 44.79986572265625 L 22.51401519775391 44.8022346496582 L 22.51170349121094 44.80458831787109 L 21.33468627929688 46.0079345703125 L 21.16869354248047 46.1785774230957 L 21.16387557983398 46.18352508544922 L 21.15899658203125 46.18841552734375 C 20.52480316162109 46.82260513305664 20.0102653503418 47.44379806518555 19.62859344482422 48.03641510009766 C 19.2897834777832 48.56016540527344 18.99061584472656 49.11521530151367 18.73939514160156 49.6861457824707 L 18.72811508178711 49.71178817749023 L 18.71541595458984 49.73674774169922 C 18.46574401855469 50.22761535644531 18.21709442138672 50.86044692993164 17.90900421142578 51.78915405273438 C 17.61233520507813 52.68178558349609 17.32717132568359 53.59189605712891 17.06046295166016 54.49758911132813 C 16.79059600830078 55.40218353271484 16.5228271484375 56.32223510742188 16.2645263671875 57.23234558105469 C 15.95800018310547 58.33639907836914 15.78079986572266 59.1148681640625 15.68999481201172 59.75638580322266 L 15.68914794921875 59.76239776611328 L 15.68822479248047 59.76838684082031 C 15.39445495605469 61.67649841308594 15.74694061279297 63.27187347412109 16.73589324951172 64.51029968261719 C 17.43097686767578 65.36006927490234 18.72565841674805 66.37086486816406 20.94982528686523 66.37086486816406 C 21.25958633422852 66.37086486816406 21.58178329467773 66.35213470458984 21.91154479980469 66.31473541259766 L 21.98666381835938 66.30652618408203 L 22.06296539306641 66.29441833496094 C 22.61746597290039 66.20787048339844 23.33335494995117 66.0467529296875 24.38087463378906 65.77290344238281 C 25.36663436889648 65.51157379150391 26.35829544067383 65.21930694580078 27.32815551757813 64.90427398681641 C 28.3151741027832 64.58348846435547 29.29730606079102 64.24373626708984 30.24953460693359 63.89363861083984 C 31.02801513671875 63.60953521728516 31.80313491821289 63.2869873046875 32.55337524414063 62.93494415283203 L 32.56001663208008 62.93183898925781 L 32.56668472290039 62.92881774902344 C 33.27665328979492 62.60828399658203 33.96178436279297 62.19310760498047 34.60304641723633 61.69481658935547 L 34.60688400268555 61.69183731079102 L 34.61075592041016 61.68888854980469 C 35.05469512939453 61.35078430175781 35.46768569946289 61.01094818115234 35.83823394775391 60.67877578735352 L 35.85321426391602 60.66534423828125 L 35.86873626708984 60.65252685546875 C 36.16719055175781 60.40590667724609 36.55419158935547 60.02905654907227 37.30813980102539 59.27812194824219 L 39.93161010742188 56.62059783935547 C 40.8641242980957 55.66226959228516 41.93801498413086 54.58980941772461 43.4129638671875 53.14388656616211 L 43.41856384277344 53.13839721679688 L 43.42425537109375 53.13299560546875 L 43.43605804443359 53.12178421020508 L 43.44589614868164 53.11139678955078 L 43.45267486572266 53.104248046875 L 43.4595947265625 53.09721374511719 L 47.38269424438477 49.11517715454102 L 47.38461303710938 49.11323547363281 L 47.38654327392578 49.11129760742188 L 57.90874481201172 38.54721832275391 L 60.60486221313477 35.84125900268555 L 60.54623413085938 35.78257751464844 L 61.345947265625 35.07875823974609 L 61.38515472412109 35.04424667358398 C 61.69736480712891 34.76979827880859 62.00890350341797 34.47815704345703 62.30938720703125 34.17915725708008 C 62.55578231811523 33.93276977539063 62.80928039550781 33.68563079833984 63.0628776550293 33.444580078125 C 63.4680061340332 33.05426406860352 63.83300018310547 32.69576644897461 64.1787109375 32.34861755371094 L 64.18692016601563 32.34037780761719 L 64.19532775878906 32.33232498168945 L 64.24224853515625 32.28734588623047 L 64.28364562988281 32.24114608764648 L 64.28981018066406 32.23426818847656 L 64.29610443115234 32.22749710083008 C 64.96298217773438 31.5102653503418 65.48008728027344 30.68337631225586 65.83287811279297 29.77017593383789 C 66.16306304931641 28.91444778442383 66.33048248291016 28.02409744262695 66.33048248291016 27.12385559082031 C 66.33048248291016 26.42940521240234 66.26056671142578 25.74765777587891 66.12267303466797 25.09756469726563 L 66.3116455078125 25.0574836730957 L 66.1197509765625 25.08422470092773 C 65.99884796142578 24.46816635131836 65.80955505371094 23.86431503295898 65.55743408203125 23.29009628295898 L 65.55352020263672 23.28120040893555 L 65.54836273193359 23.27128601074219 L 65.53961181640625 23.25444793701172 L 65.531494140625 23.23728561401367 C 64.868896484375 21.83584594726563 63.99581527709961 20.55140686035156 62.93648529052734 19.41964721679688 L 62.93442535400391 19.41743469238281 L 62.93236541748047 19.41521453857422 C 61.794921875 18.18514251708984 60.71311187744141 17.30900573730469 59.62535858154297 16.73694610595703 C 59.04841995239258 16.446044921875 58.44185256958008 16.20538330078125 57.82312393188477 16.02185821533203 C 56.96775817871094 15.76880645751953 56.08181762695313 15.63649749755859 55.18978500366211 15.62858581542969 L 55.18819427490234 15.62858581542969 M 63.36489868164063 25.69352340698242 C 63.46066284179688 26.14534378051758 63.50921630859375 26.62650299072266 63.50921630859375 27.12387466430664 C 63.50921630859375 27.61501312255859 63.42736053466797 28.10321044921875 63.26566314697266 28.57785415649414 L 63.26566314697266 28.59484481811523 L 63.19511413574219 28.77257537841797 C 62.96613311767578 29.34945678710938 62.63339233398438 29.87026596069336 62.2061653137207 30.32053756713867 L 62.19713592529297 30.33005523681641 L 62.1878547668457 30.33933639526367 C 61.81857299804688 30.7086067199707 61.46884536743164 31.0516471862793 61.11867523193359 31.38803482055664 L 61.116455078125 31.39017486572266 L 61.11421203613281 31.39230728149414 C 60.82737731933594 31.66447830200195 60.57034301757813 31.91507720947266 60.32796478271484 32.15888595581055 C 60.07644653320313 32.41155624389648 59.81295394897461 32.65888595581055 59.54482269287109 32.89400482177734 L 58.83940505981445 33.5125846862793 L 58.17715454101563 32.84798812866211 L 49.00774383544922 23.64602661132813 L 48.27216339111328 22.9078369140625 L 49.04005432128906 22.20331573486328 C 49.51770401000977 21.76508712768555 49.98278427124023 21.33049774169922 50.42238616943359 20.91161727905273 L 50.42435455322266 20.90973663330078 L 50.42633438110352 20.90786743164063 C 50.94865417480469 20.41556549072266 51.41842651367188 19.99560546875 51.82258605957031 19.65967559814453 L 51.83460235595703 19.64967727661133 L 51.8469352722168 19.64006805419922 C 52.407470703125 19.20305252075195 52.99468994140625 18.89071273803711 53.59230804443359 18.71169281005859 C 54.11788558959961 18.55035018920898 54.66306304931641 18.46855545043945 55.21280670166016 18.46855545043945 C 55.25993347167969 18.46855545043945 55.3069953918457 18.46915817260742 55.35414505004883 18.47036743164063 L 55.36262512207031 18.47058486938477 L 55.37109375 18.470947265625 C 55.93963623046875 18.49517822265625 56.48262405395508 18.58280563354492 56.9849739074707 18.73137664794922 L 56.98915481567383 18.73261642456055 L 56.99332427978516 18.73388671875 C 57.50130462646484 18.88895797729492 57.92969512939453 19.05593490600586 58.30298614501953 19.24435806274414 L 58.31004333496094 19.24791717529297 L 58.31705474853516 19.25159454345703 C 59.11770629882813 19.67175674438477 59.95233535766602 20.35792541503906 60.86800384521484 21.34861755371094 C 61.76212310791016 22.31420516967773 62.4715576171875 23.35314559936523 62.9765739440918 24.43657684326172 L 62.98026275634766 24.44448471069336 L 62.98381423950195 24.45246505737305 C 63.14626693725586 24.8174934387207 63.27446746826172 25.23503875732422 63.36489868164063 25.69352340698242 M 45.25358963012695 47.2429084777832 L 41.45622634887695 51.09883880615234 L 41.45016479492188 51.10498809814453 L 41.44399642944336 51.11103820800781 C 40.01597595214844 52.51184844970703 38.89986419677734 53.62596893310547 37.9295654296875 54.61926651000977 C 37.11313629150391 55.45034790039063 36.26270294189453 56.31196594238281 35.32966613769531 57.25333404541016 L 35.32769393920898 57.25531768798828 L 35.32572555541992 57.25728607177734 C 34.48491287231445 58.09621047973633 34.19981384277344 58.36433410644531 34.03305435180664 58.49460601806641 C 33.70624923706055 58.79376983642578 33.32775497436523 59.10684585571289 32.8778190612793 59.45023345947266 C 32.41371154785156 59.81385803222656 31.90557479858398 60.12008666992188 31.36725234985352 60.360595703125 C 30.87123489379883 60.6039924621582 30.18970108032227 60.88718032836914 29.28469467163086 61.22596740722656 L 29.2819938659668 61.22697448730469 L 29.27929306030273 61.22796630859375 C 28.36830520629883 61.56302642822266 27.4246940612793 61.88971710205078 26.47168350219727 62.19994735717773 C 25.43648529052734 62.53334808349609 24.5208740234375 62.80331420898438 23.67213439941406 63.02538681030273 C 22.70931625366211 63.27685546875 22.08083343505859 63.42002868652344 21.63432312011719 63.48958587646484 L 21.61406326293945 63.49274444580078 L 21.59370422363281 63.49506378173828 C 21.37575531005859 63.51992797851563 21.15861511230469 63.53252410888672 20.94830322265625 63.53252410888672 C 20.0440559387207 63.53252410888672 19.36913299560547 63.26638793945313 18.94231414794922 62.74151611328125 L 18.94011306762695 62.73880767822266 L 18.93792343139648 62.73607635498047 C 18.45768737792969 62.13701629638672 18.30908966064453 61.28900909423828 18.48373031616211 60.14363098144531 C 18.55498504638672 59.64319610595703 18.71527099609375 58.9493408203125 18.97363662719727 58.0228157043457 L 18.97442626953125 58.01998901367188 L 18.97523498535156 58.01715850830078 C 19.26872634887695 56.98810577392578 19.5191764831543 56.12687683105469 19.76278305053711 55.30898666381836 C 20.05565643310547 54.31747436523438 20.32352447509766 53.46046447753906 20.58115386962891 52.69066619873047 C 20.858642578125 51.85657501220703 21.07761001586914 51.29894256591797 21.26700592041016 50.94493865966797 C 21.47930145263672 50.45289611816406 21.72322845458984 49.99470138549805 21.99002456665039 49.58610534667969 C 22.26863098144531 49.15486526489258 22.65516662597656 48.69305419921875 23.17152404785156 48.17447662353516 C 23.25590515136719 48.08747100830078 23.38690185546875 47.95381164550781 23.56418609619141 47.77295684814453 C 23.80406188964844 47.52823638916016 24.12968826293945 47.19603729248047 24.54021072387695 46.77488708496094 C 25.25503540039063 46.0338134765625 26.13904190063477 45.14336776733398 27.24508666992188 44.03573608398438 L 30.82241439819336 40.44288635253906 L 34.79357528686523 36.45622634887695 L 45.33118438720703 25.87671661376953 L 46.04145431518555 25.16362762451172 L 46.74995422363281 25.87847518920898 L 55.91782379150391 35.12853622436523 L 56.61724472045898 35.83422470092773 L 55.91607666015625 36.53817749023438 L 45.37538528442383 47.12074661254883 L 45.25358963012695 47.2429084777832 M 55.18819808959961 14.62858581542969 C 55.18996429443359 14.62858581542969 55.19180297851563 14.62858581542969 55.19356536865234 14.62858581542969 C 56.18014526367188 14.63686370849609 57.16072463989258 14.78305816650391 58.10680389404297 15.06293487548828 C 58.78776550292969 15.26492309570313 59.44921493530273 15.52762603759766 60.08320617675781 15.84787750244141 C 61.27455520629883 16.47301483154297 62.44729614257813 17.417724609375 63.66657257080078 18.73628616333008 C 64.79534912109375 19.94224548339844 65.72951507568359 21.31655502319336 66.435546875 22.80985641479492 L 66.45571899414063 22.84863662719727 L 66.4727783203125 22.88741683959961 C 66.75509643554688 23.53041458129883 66.96578216552734 24.2025260925293 67.10103607177734 24.89162826538086 L 67.10090637207031 24.89006805419922 C 67.25292205810547 25.60674667358398 67.33048248291016 26.35909652709961 67.33048248291016 27.12385559082031 C 67.33048248291016 28.14612579345703 67.13813781738281 29.1652946472168 66.76583862304688 30.13016510009766 C 66.36863708496094 31.15830612182617 65.77896118164063 32.10125732421875 65.0284423828125 32.9084358215332 L 64.96172332763672 32.98290634155273 L 64.88728332519531 33.05425643920898 C 64.51497650146484 33.42811584472656 64.136474609375 33.79885482788086 63.75486755371094 34.16649627685547 C 63.5051155090332 34.40384674072266 63.26002502441406 34.64273452758789 63.01647567749023 34.88627624511719 C 62.703125 35.19808578491211 62.37890625 35.50212478637695 62.04539489746094 35.79530715942383 L 62.00661468505859 35.82943725585938 L 62.01746368408203 35.84029769897461 L 58.61713409423828 39.25303649902344 L 48.09505462646484 49.81699752807617 L 44.17195510864258 53.79903411865234 L 44.14403533935547 53.82851409912109 L 44.11301422119141 53.85798645019531 C 42.69362640380859 55.24944686889648 41.59689331054688 56.34308624267578 40.6459846496582 57.32036590576172 L 38.01662445068359 59.98385620117188 C 37.23479461669922 60.76257705688477 36.83612442016602 61.15038681030273 36.50571441650391 61.42340850830078 C 36.1163444519043 61.77243804931641 35.68510437011719 62.12766647338867 35.21662521362305 62.48444366455078 C 34.513916015625 63.03048706054688 33.76155471801758 63.48655700683594 32.97817611694336 63.84023666381836 C 32.19799423217773 64.20632934570313 31.40194320678711 64.53758239746094 30.59236526489258 64.83303833007813 C 29.613525390625 65.19292449951172 28.63003540039063 65.53264617919922 27.63724517822266 65.85530853271484 C 26.6454963684082 66.17744445800781 25.64508438110352 66.47229766845703 24.63713455200195 66.73951721191406 C 23.55126571655273 67.02339935302734 22.80356597900391 67.19092559814453 22.21719360351563 67.28245544433594 L 22.11946487426758 67.29796600341797 L 22.02018356323242 67.30881500244141 C 21.65099334716797 67.35069274902344 21.29110336303711 67.37086486816406 20.94982528686523 67.37086486816406 C 18.19481658935547 67.37086486816406 16.66063690185547 65.99956512451172 15.95792388916016 65.13863372802734 C 14.78518676757813 63.67272567749023 14.36479187011719 61.79262542724609 14.69986724853516 59.61622619628906 C 14.79604339599609 58.93677520751953 14.97909545898438 58.12392425537109 15.30174255371094 56.96204376220703 C 15.56236267089844 56.04371643066406 15.82916259765625 55.12693786621094 16.10219573974609 54.21171569824219 C 16.37238311767578 53.29419708251953 16.65837860107422 52.38141632080078 16.96004486083984 51.4737548828125 C 17.28270721435547 50.50112915039063 17.54951477050781 49.82322692871094 17.8240852355957 49.28339767456055 C 18.0975341796875 48.66194534301758 18.42018508911133 48.06333541870117 18.78895568847656 47.49326705932617 C 19.21555328369141 46.83088684082031 19.76934432983398 46.16384506225586 20.45188522338867 45.48130798339844 L 20.61787414550781 45.31066513061523 L 21.79682540893555 44.1053466796875 C 22.53055572509766 43.34524536132813 23.44889450073242 42.41914749145508 24.54717636108398 41.31932830810547 L 28.12434387207031 37.72663497924805 L 32.09553527832031 33.73993682861328 L 42.63468551635742 23.16043472290039 L 42.87355422973633 22.91533660888672 L 42.75566482543945 22.7958869934082 L 45.76507568359375 20.01605606079102 L 46.04895401000977 19.72907638549805 L 46.06291580200195 19.74149703979492 L 46.45228576660156 19.38004684448242 C 46.90989303588867 18.95966720581055 47.36286544799805 18.53616714477539 47.81272506713867 18.10802459716797 C 48.40219497680664 17.55112457275391 48.93427658081055 17.07645416259766 49.39498519897461 16.69794464111328 L 49.45083618164063 16.65141296386719 L 49.50669479370117 16.60643005371094 C 51.12348937988281 15.32552337646484 53.12558746337891 14.62858581542969 55.18819808959961 14.62858581542969 Z M 58.88551330566406 32.14213562011719 C 59.13780212402344 31.92090606689453 59.38252258300781 31.69119644165039 59.61925506591797 31.45338821411133 C 59.88296508789063 31.18811798095703 60.15287399291992 30.92595672607422 60.42589569091797 30.66689682006836 C 60.78113555908203 30.32562637329102 61.1317138671875 29.98125457763672 61.48074340820313 29.63222503662109 C 61.81830596923828 29.27646636962891 62.08473205566406 28.85944747924805 62.26566314697266 28.40363693237305 L 62.26566314697266 28.40210723876953 C 62.43165588378906 27.97395706176758 62.50921630859375 27.54891586303711 62.50921630859375 27.12387466430664 C 62.50921630859375 26.69573593139648 62.46888732910156 26.28620529174805 62.38511657714844 25.89374542236328 C 62.30755615234375 25.49817657470703 62.20206451416016 25.15534591674805 62.07020568847656 24.85906600952148 C 61.61104583740234 23.87402725219727 60.96882629394531 22.92931747436523 60.13426208496094 22.02804565429688 C 59.30123519897461 21.12676620483398 58.54112243652344 20.49851608276367 57.85237503051758 20.13707733154297 C 57.52661514282227 19.9726448059082 57.14345550537109 19.82527542114258 56.70135498046875 19.69031524658203 C 56.26079559326172 19.56001663208008 55.8016357421875 19.49020767211914 55.32850646972656 19.47003555297852 C 55.28990173339844 19.46904754638672 55.25138092041016 19.46855545043945 55.21280670166016 19.46855545043945 C 54.76219177246094 19.46855545043945 54.31382751464844 19.53593444824219 53.88273620605469 19.66859817504883 C 53.39409637451172 19.81441497802734 52.91941452026367 20.07192611694336 52.4617919921875 20.42870712280273 C 52.10346221923828 20.72654724121094 51.65205383300781 21.12676620483398 51.11222457885742 21.63557815551758 C 50.65150451660156 22.0745849609375 50.18613433837891 22.50893783569336 49.71610260009766 22.94017791748047 L 58.88551330566406 32.14213562011719 Z M 44.66687393188477 46.41504669189453 L 55.20756530761719 35.83247756958008 L 46.03969573974609 26.58241653442383 L 35.5020866394043 37.16192626953125 L 31.5308952331543 41.14861679077148 L 27.9537239074707 44.74130630493164 C 26.87405395507813 45.82252502441406 25.97434616088867 46.72844696044922 25.25766372680664 47.47149658203125 C 24.53943634033203 48.20833587646484 24.08026504516602 48.6737060546875 23.88481521606445 48.8753776550293 C 23.42719650268555 49.33453750610352 23.07350540161133 49.75182723999023 22.82996368408203 50.12877655029297 C 22.58486557006836 50.50417709350586 22.36304473876953 50.92301559448242 22.16758346557617 51.38218688964844 C 22.00315475463867 51.67691802978516 21.79218292236328 52.21830749511719 21.53002548217773 53.0063362121582 C 21.26785659790039 53.78971862792969 20.99949645996094 54.65220642089844 20.72182464599609 55.59226608276367 C 20.44414520263672 56.52455902099609 20.18508529663086 57.42117691040039 19.93688583374023 58.29142761230469 C 19.69334411621094 59.16477584838867 19.53822326660156 59.82870483398438 19.47306442260742 60.2894287109375 C 19.34276580810547 61.13951873779297 19.42343521118164 61.74294662475586 19.71816635131836 62.110595703125 C 19.94774627685547 62.39291381835938 20.35882568359375 62.53252410888672 20.94830322265625 62.53252410888672 C 21.12669372558594 62.53252410888672 21.30353546142578 62.52167510986328 21.48038482666016 62.50150680541992 C 21.90851593017578 62.43480682373047 22.55229568481445 62.28432464599609 23.41943359375 62.05784606933594 C 24.28501510620117 61.83136749267578 25.20180511474609 61.55834579467773 26.16513442993164 61.24809646606445 C 27.09432601928711 60.94561767578125 28.01886367797852 60.62605667114258 28.93410491943359 60.28943634033203 C 29.81676483154297 59.95901489257813 30.48379516601563 59.68134689331055 30.94296646118164 59.45486450195313 C 31.41531372070313 59.24546813964844 31.85979461669922 58.97815704345703 32.26617431640625 58.65907669067383 C 32.69121551513672 58.33486557006836 33.06816482543945 58.02461624145508 33.39237594604492 57.72522735595703 C 33.52268600463867 57.63370513916016 33.9306640625 57.23658752441406 34.61941528320313 56.54938507080078 C 35.48656463623047 55.67448425292969 36.35215377807617 54.79802703857422 37.21619415283203 53.91847610473633 C 38.26328659057617 52.84656524658203 39.440673828125 51.67537689208984 40.74372482299805 50.39715576171875 L 44.66682434082031 46.41355514526367 L 44.66687393188477 46.41504669189453 Z" stroke="none" fill="#f2f2f2"/>
      </g>
      <path id="路径_238" data-name="路径 238" d="M541.213,906.971m2.327,0h20.166a2.057,2.057,0,0,1,2.327,2.327h0a2.057,2.057,0,0,1-2.327,2.327H543.54a2.057,2.057,0,0,1-2.327-2.327h0A2.057,2.057,0,0,1,543.54,906.971Z" transform="translate(-498.702 -845.029)" stroke="#f4f4f4" stroke-width="1"/>
    </g>
  </g>
</svg>
