<svg xmlns="http://www.w3.org/2000/svg" width="10" height="10" viewBox="0 0 10 10">
  <path id="五角星_星型_收藏默认" data-name="五角星 星型 收藏默认" d="M60.552,4.494,58.65,6.43,59.1,9.166a.71.71,0,0,1-.554.823.655.655,0,0,1-.435-.072L55.754,8.625,53.4,9.914a.667.667,0,0,1-.92-.3.739.739,0,0,1-.068-.451l.449-2.737-1.9-1.933a.734.734,0,0,1-.012-1.007.673.673,0,0,1,.39-.207l2.631-.4L55.143.4a.668.668,0,0,1,1.221,0L57.54,2.884l2.629.4a.708.708,0,0,1,.58.8.724.724,0,0,1-.2.408Z" transform="translate(-50.755)" fill="#ff2626"/>
</svg>
