<svg xmlns="http://www.w3.org/2000/svg" width="18.954" height="18.954" viewBox="0 0 18.954 18.954">
  <g id="组_1494" data-name="组 1494" transform="translate(-30 -561.667)">
    <g id="组_1176" data-name="组 1176" transform="translate(30 561.667)">
      <path id="减去_79" data-name="减去 79" d="M10.339,18.954H8.616a.862.862,0,0,1,0-1.722h1.722a.866.866,0,0,1,.648.292,8.194,8.194,0,0,0,6.258-5.459h-.615a11.582,11.582,0,0,1-1.112,1.543.909.909,0,0,1-.577.293.437.437,0,0,1-.292-.112c-.315-.273-.1-.671-.021-.821.009-.017.017-.031.021-.041.053-.123.107-.243.158-.359h0a6.469,6.469,0,0,0,.7-3.087,7.474,7.474,0,0,0-2.585-5.17,4.052,4.052,0,0,1-.147.624,3.879,3.879,0,0,1-5.47,2.414,2.483,2.483,0,0,0-.966-.176,2.771,2.771,0,0,0-1.763.586A2.892,2.892,0,0,0,3.445,9.911,5.29,5.29,0,0,0,4.2,12.686a2.5,2.5,0,0,1,.274.608.527.527,0,0,1-.137.495.621.621,0,0,1-.347.113.732.732,0,0,1-.514-.253,11.4,11.4,0,0,1-1.147-1.583H.861A.862.862,0,0,1,0,11.206V7.755a.862.862,0,0,1,.861-.861h.585a9.213,9.213,0,0,1,.788-2.422A8.279,8.279,0,0,1,3.657,2.411,7.6,7.6,0,0,1,5.675.888,7.9,7.9,0,0,1,8.25.082,3.9,3.9,0,0,1,9.044,0c.056,0,.114,0,.17,0,.089,0,.178,0,.264,0a8.4,8.4,0,0,1,3.055.551,7.549,7.549,0,0,1,2.392,1.492A8.129,8.129,0,0,1,16.6,4.237a9.154,9.154,0,0,1,.907,2.655h.584a.861.861,0,0,1,.862.861V11.2a.861.861,0,0,1-.806.859,9.058,9.058,0,0,1-6.993,6.309A.861.861,0,0,1,10.339,18.954Z" transform="translate(0 0)"/>
      <path id="减去_80" data-name="减去 80" d="M3,1.733A5.083,5.083,0,0,1,.178.8.431.431,0,0,1,.656.081,4.241,4.241,0,0,0,3,.869,4.236,4.236,0,0,0,5.348.08.43.43,0,0,1,5.671.006.433.433,0,0,1,5.95.183a.427.427,0,0,1,.074.322.433.433,0,0,1-.176.28L5.826.8A5.048,5.048,0,0,1,3,1.733Z" transform="translate(6.475 14.221)" fill="#6a6a6a"/>
    </g>
  </g>
</svg>
