<svg xmlns="http://www.w3.org/2000/svg" width="18.926" height="20.408" viewBox="0 0 18.926 20.408">
  <g id="组_1177" data-name="组 1177" transform="translate(0 0)">
    <g id="组_1493" data-name="组 1493">
      <path id="路径_296" data-name="路径 296" d="M200.163,463.821l-3.469,9.789a2.261,2.261,0,0,1-2.9,1.372l-8.178-2.942a2.262,2.262,0,0,1-1.22-3.211l.852-1.563,6.175,2.925Z" transform="translate(-181.961 -454.709)"/>
      <g id="组_1492" data-name="组 1492">
        <path id="路径_297" data-name="路径 297" d="M87.266,61.343l8.3-8.207a2.1,2.1,0,0,1,1.674-.6l6.009.567a2.074,2.074,0,0,1,1.875,1.928l.38,5.755a2.1,2.1,0,0,1-.614,1.627l-8.269,8.235a2.291,2.291,0,0,1-3.227.007L87.267,64.6a2.29,2.29,0,0,1,0-3.259Z" transform="translate(-86.585 -52.528)" fill="#6a6a6a"/>
        <path id="路径_298" data-name="路径 298" d="M708.3,168.449m-1.332,0a1.332,1.332,0,1,0,1.332-1.332A1.332,1.332,0,0,0,706.969,168.449Z" transform="translate(-693.226 -164.579)"/>
        <path id="路径_299" data-name="路径 299" d="M344.18,266.469l-2.613-.094-.1-2.574a.737.737,0,0,0-1.473.056l.079,2.1-.828-.836a.737.737,0,1,0-1.047,1.038l1.279,1.291-.742.752-1.273-1.284a.737.737,0,1,0-1.047,1.038l1.285,1.3-.8.811a.737.737,0,1,0,1.05,1.034l.785-.8,1.239,1.25a.738.738,0,1,0,1.048-1.038l-1.252-1.264.741-.752,1.245,1.257a.737.737,0,1,0,1.048-1.038l-.846-.853,2.163.078h.027a.738.738,0,0,0,.027-1.475Z" transform="translate(-330.674 -258.427)"/>
      </g>
    </g>
  </g>
</svg>
