<svg xmlns="http://www.w3.org/2000/svg" width="30" height="30" viewBox="0 0 30 30">
  <g id="组_1486" data-name="组 1486" transform="translate(-60 -863)">
    <rect id="矩形_887" data-name="矩形 887" width="30" height="30" rx="5" transform="translate(60 863)" opacity="0.05"/>
    <path id="联合_134" data-name="联合 134" d="M621.921-1792.685l-3.489-1.894-3.486,1.894a1.562,1.562,0,0,1-1.611-.088,1.525,1.525,0,0,1-.635-1.494l.681-4.1-2.938-2.959a1.5,1.5,0,0,1-.361-1.552,1.516,1.516,0,0,1,1.223-1.013l4-.6,1.74-3.64a1.54,1.54,0,0,1,1.384-.866,1.539,1.539,0,0,1,1.383.866l1.74,3.64,4,.6h0a1.526,1.526,0,0,1,1.221,1.012,1.505,1.505,0,0,1-.358,1.554l-2.939,2.959.682,4.1a1.525,1.525,0,0,1-.633,1.492,1.542,1.542,0,0,1-.879.275A1.538,1.538,0,0,1,621.921-1792.685Z" transform="translate(-543 2679)" fill="#4b4b4b"/>
  </g>
</svg>
