<svg xmlns="http://www.w3.org/2000/svg" width="30" height="30" viewBox="0 0 30 30">
  <g id="组_1485" data-name="组 1485" transform="translate(-15 -863)">
    <rect id="矩形_886" data-name="矩形 886" width="30" height="30" rx="5" transform="translate(15 863)" opacity="0.05"/>
    <path id="路径_322" data-name="路径 322" d="M281.636,284.464s-.751,3.823,4.9,9.475l.122.119.119.121c5.652,5.652,9.475,4.9,9.475,4.9a2.04,2.04,0,0,0,.892-.339,7.286,7.286,0,0,0,1.4-1.6c.533-.88-.475-2.208-1.054-2.787-1.17-1.17-2.245-1.4-2.718-1.073-.213.147-1.059,1.058-1.059,1.058a1.213,1.213,0,0,1-.732.309s-1.478.015-4.228-2.692c-2.707-2.749-2.692-4.227-2.692-4.227a1.22,1.22,0,0,1,.309-.733s1.049-1.048,1.058-1.059c.4-.5-.261-1.736-1.073-2.718a2.732,2.732,0,0,0-1.734-1.152A3.16,3.16,0,0,0,281.636,284.464Z" transform="translate(-259.603 586.948)" fill="#4b4b4b"/>
  </g>
</svg>
