<svg xmlns="http://www.w3.org/2000/svg" width="30" height="30" viewBox="0 0 30 30">
  <g id="组_1484" data-name="组 1484" transform="translate(-60 -863)">
    <rect id="矩形_887" data-name="矩形 887" width="30" height="30" rx="5" transform="translate(60 863)" opacity="0.05"/>
    <g id="收藏" transform="translate(67 870)">
      <path id="路径_144" data-name="路径 144" d="M15.6,26.409l-4-.6-1.739-3.64a1.538,1.538,0,0,0-2.767,0l-1.74,3.64-4,.6A1.514,1.514,0,0,0,.48,28.977l2.939,2.96-.682,4.1a1.526,1.526,0,0,0,.635,1.494,1.561,1.561,0,0,0,1.611.088L8.47,35.725l3.489,1.894a1.542,1.542,0,0,0,1.612-.089,1.524,1.524,0,0,0,.633-1.492l-.682-4.1,2.939-2.96a1.506,1.506,0,0,0,.359-1.554A1.527,1.527,0,0,0,15.6,26.41Zm.349,2.034-3.213,3.234.746,4.488a.754.754,0,0,1-.321.745.834.834,0,0,1-.857.046L8.47,34.875l-3.83,2.08a.833.833,0,0,1-.857-.045.755.755,0,0,1-.324-.748l.746-4.486L.994,28.442a.749.749,0,0,1-.182-.77.786.786,0,0,1,.636-.519l4.388-.658,1.91-4a.811.811,0,0,1,1.45,0L11.1,26.493l4.387.658a.788.788,0,0,1,.636.518.75.75,0,0,1-.181.772Z" transform="translate(-0.038 -21.303)" fill="#4b4b4b"/>
      <path id="路径_145" data-name="路径 145" d="M358.406,385.28a2.381,2.381,0,0,0-1.8.7,2.971,2.971,0,0,0-.72,1.938.37.37,0,0,0,.366.365h.007a.371.371,0,0,0,.36-.381,2.215,2.215,0,0,1,.515-1.4,1.68,1.68,0,0,1,1.268-.467.376.376,0,0,0,0-.751Z" transform="translate(-350.023 -379.28)" fill="#aeaeae"/>
    </g>
  </g>
</svg>
