<svg id="组_1178" data-name="组 1178" xmlns="http://www.w3.org/2000/svg" width="18.954" height="18.199" viewBox="0 0 18.954 18.199">
  <path id="路径_286" data-name="路径 286" d="M78.031,113.65l.585-5.069s-.023-1.713,2.456-1.713H94a2.333,2.333,0,0,1,2.433,1.825c.33,1.923.541,4.506.541,4.506s.21,2.794-2.163,3.094-2.945-1.021-2.945-1.021a2.371,2.371,0,0,1-2.072,1.154,2.524,2.524,0,0,1-2.288-1.034,2.262,2.262,0,0,1-2.248,1.034,2.478,2.478,0,0,1-2.223-1.154s-.414,1.264-2.659,1.071a2.423,2.423,0,0,1-2.342-2.694Z" transform="translate(-78.021 -106.868)"/>
  <path id="路径_287" data-name="路径 287" d="M144.179,553.185a5.106,5.106,0,0,0,3.575-.481,4.325,4.325,0,0,0,4.436,0,4.473,4.473,0,0,0,4.426,0,4.3,4.3,0,0,0,3.575.424v5.847a2.051,2.051,0,0,1-2.051,2.051H146.23a2.051,2.051,0,0,1-2.051-2.051v-5.79Z" transform="translate(-142.713 -542.828)" fill="#6a6a6a"/>
</svg>
