<svg xmlns="http://www.w3.org/2000/svg" width="90" height="90" viewBox="0 0 90 90">
  <g id="组_1482" data-name="组 1482" transform="translate(-60 -445)">
    <circle id="椭圆_297" data-name="椭圆 297" cx="45" cy="45" r="45" transform="translate(60 445)" fill="#f4f4f4"/>
    <g id="社交拼团-38" transform="translate(76.675 465)">
      <path id="路径_71" data-name="路径 71" d="M41.356,116.548a10.857,10.857,0,0,1-1.721-5.795,10.286,10.286,0,0,1,4.256-8.33,1.1,1.1,0,0,0,.542-.9,2.135,2.135,0,0,0-.18-1.087,1.318,1.318,0,0,0-1.179-.635,1.449,1.449,0,0,0-.814.272,13.088,13.088,0,0,0-5.433,10.773,13.293,13.293,0,0,0,2.263,7.426,11.952,11.952,0,0,0,4.256,3.984l.272.18L40.27,132.573a1.5,1.5,0,0,0,.09,1.087,1.278,1.278,0,0,0,.814.724.8.8,0,0,0,.452.093,1.439,1.439,0,0,0,1.359-1l4.256-12.763-1.269-.455A9.938,9.938,0,0,1,41.356,116.548Z" transform="translate(-36.827 -85.037)" fill="#111" stroke="#111" stroke-width="0.5"/>
      <path id="路径_72" data-name="路径 72" d="M204.248,118.181a13.293,13.293,0,0,0,2.263-7.426,12.916,12.916,0,0,0-5.433-10.683,1.191,1.191,0,0,0-.724-.272,1.55,1.55,0,0,0-1.176.635,2.393,2.393,0,0,0-.272,1.087,1.194,1.194,0,0,0,.545.9,10.21,10.21,0,0,1,4.164,8.33,10.857,10.857,0,0,1-1.721,5.795,9.637,9.637,0,0,1-4.436,3.622l-1.266.452,4.253,12.769a1.472,1.472,0,0,0,1.359.994.678.678,0,0,0,.452-.09,1.289,1.289,0,0,0,.817-.724,1.524,1.524,0,0,0,.09-1.087l-3.344-10.231.269-.183A10.677,10.677,0,0,0,204.248,118.181Z" transform="translate(-150.016 -85.04)" fill="#111" stroke="#111" stroke-width="0.5"/>
      <path id="路径_73" data-name="路径 73" d="M102.088,54.474a17.944,17.944,0,0,0-26.077,0A19.778,19.778,0,0,0,73.928,79.1a18,18,0,0,0,7.064,6.247l.272.18-3.08,10.865a1.483,1.483,0,0,0,.09,1.087,1.6,1.6,0,0,0,.817.724c.18,0,.269.093.362.093a1.449,1.449,0,0,0,1.356-1.087l3.8-13.4-1.159-.455a16.382,16.382,0,0,1-7.244-5.885,16.869,16.869,0,0,1,1.811-20.916,15.116,15.116,0,0,1,22.093,0,16.443,16.443,0,0,1,4.616,11.59,16.845,16.845,0,0,1-2.8,9.327,15.782,15.782,0,0,1-7.244,5.885L93.5,83.81,97.212,97.3a1.449,1.449,0,0,0,1.356,1.087c.183,0,.272,0,.362-.09a1.6,1.6,0,0,0,1-1.811L96.85,85.621l.269-.183a19.517,19.517,0,0,0,7.064-6.247,19.83,19.83,0,0,0,3.349-11.048A19.453,19.453,0,0,0,102.088,54.474Z" transform="translate(-60.799 -48.858)" fill="#111" stroke="#111" stroke-width="0.5"/>
      <circle id="椭圆_271" data-name="椭圆 271" cx="2.356" cy="2.356" r="2.356" transform="translate(18.823 15.247)"/>
      <circle id="椭圆_272" data-name="椭圆 272" cx="2.356" cy="2.356" r="2.356" transform="translate(34.301 15.247)"/>
      <path id="路径_74" data-name="路径 74" d="M116.89,127.79a6.085,6.085,0,0,0,11.555,0" transform="translate(-93.692 -104.92)" fill="none" stroke="#000" stroke-linecap="round" stroke-miterlimit="10" stroke-width="3"/>
    </g>
  </g>
</svg>
