<svg xmlns="http://www.w3.org/2000/svg" width="20" height="22.965" viewBox="0 0 20 22.965">
  <path id="实名" d="M97.8,9.84,96.8,9.824a14.777,14.777,0,0,1-4.534-.936,20.194,20.194,0,0,1-3.879-1.975L87.8,6.5l-.6.413a20.508,20.508,0,0,1-3.879,1.975,14.692,14.692,0,0,1-4.529.936l-1,.016v9.654c0,4.846,6.5,9.971,10,9.971s10-5.125,10-9.971ZM84.532,21.71a.582.582,0,1,1-1.164,0,4.167,4.167,0,0,1,2.523-3.824,2.687,2.687,0,1,1,3.276,0,4.237,4.237,0,0,1,1.39.977,10.764,10.764,0,0,0-.856.781,2.992,2.992,0,0,0-5.168,2.061Zm9.17-2.292-3.548,3.541a.577.577,0,0,1-.411.169.057.057,0,0,1-.018,0,.58.58,0,0,1-.418-.2L87.6,20.987a.581.581,0,1,1,.872-.769l1.3,1.477,3.109-3.107a.586.586,0,0,1,.824,0A.593.593,0,0,1,93.7,19.419Z" transform="translate(-77.8 -6.5)"/>
</svg>
