<svg id="组_1175" data-name="组 1175" xmlns="http://www.w3.org/2000/svg" width="19.592" height="17.69" viewBox="0 0 19.592 17.69">
  <g id="组_1490" data-name="组 1490">
    <g id="组_1491" data-name="组 1491">
      <g id="组_1489" data-name="组 1489">
        <path id="路径_304" data-name="路径 304" d="M684.134,421.7a1.759,1.759,0,0,0,1.758,1.757h4.268v-3.514h-4.268A1.759,1.759,0,0,0,684.134,421.7Z" transform="translate(-670.568 -413.138)"/>
        <path id="路径_305" data-name="路径 305" d="M87.1,124.643a3.345,3.345,0,1,1,0-6.69h4.268v-.011a5.148,5.148,0,0,0-5.148-5.148H76.93a5.148,5.148,0,0,0-5.148,5.148v7.393a5.148,5.148,0,0,0,5.148,5.148h9.294a5.148,5.148,0,0,0,5.148-5.148v-.691H87.1Z" transform="translate(-71.782 -112.793)" fill="#6a6a6a"/>
        <path id="路径_306" data-name="路径 306" d="M242.933,271.489h-5.019a1.063,1.063,0,0,1,0-2.126h5.02a1.063,1.063,0,1,1,0,2.126Z" transform="translate(-233.195 -265.895)"/>
      </g>
      <path id="路径_307" data-name="路径 307" d="M729.146,462.8m-.826,0a.826.826,0,1,0,.826-.826A.826.826,0,0,0,728.32,462.8Z" transform="translate(-713.776 -454.242)" fill="#6a6a6a"/>
    </g>
  </g>
</svg>
