<svg xmlns="http://www.w3.org/2000/svg" width="17.087" height="18.909" viewBox="0 0 17.087 18.909">
  <g id="组_1174" data-name="组 1174" transform="translate(0 0)">
    <g id="组_1488" data-name="组 1488">
      <path id="路径_300" data-name="路径 300" d="M141.6,107.442l-6.306-2.459a1.36,1.36,0,0,0-1,0l-6.068,2.43a1.358,1.358,0,0,1-1.862-1.26V90.936a2.309,2.309,0,0,1,2.309-2.309H141.14a2.309,2.309,0,0,1,2.309,2.309v15.241a1.359,1.359,0,0,1-1.852,1.265Z" transform="translate(-126.362 -88.627)" fill="#6a6a6a"/>
      <path id="路径_301" data-name="路径 301" d="M315.352,245.664l.865,1.755a.665.665,0,0,0,.5.364l1.936.281a.665.665,0,0,1,.369,1.134l-1.4,1.366a.669.669,0,0,0-.192.589l.331,1.928a.665.665,0,0,1-.965.7l-1.732-.911a.665.665,0,0,0-.619,0l-1.732.911a.665.665,0,0,1-.965-.7l.331-1.928a.662.662,0,0,0-.192-.589l-1.4-1.367a.665.665,0,0,1,.369-1.134l1.936-.281a.665.665,0,0,0,.5-.364l.865-1.755A.666.666,0,0,1,315.352,245.664Z" transform="translate(-306.212 -241.822)"/>
    </g>
  </g>
</svg>
