<svg xmlns="http://www.w3.org/2000/svg" width="38.904" height="42.091" viewBox="0 0 38.904 42.091">
  <g id="组_1377" data-name="组 1377" transform="translate(-300.712 -135.82) rotate(-31)">
    <path id="路径_433" data-name="路径 433" d="M327.342,291.622a2.289,2.289,0,0,0,.686-1.633l-.212-1.73a9.7,9.7,0,1,0-8.832,0l-.212,1.73a2.3,2.3,0,0,0,2.3,2.3h4.665" transform="translate(-129.548 16.833)" fill="#ffd865"/>
    <path id="路径_434" data-name="路径 434" d="M319.827,286.736h-4.664a2.641,2.641,0,0,1-2.638-2.638l.187-1.537a10.047,10.047,0,1,1,9.568,0l.183,1.5a2.627,2.627,0,0,1-.785,1.918.342.342,0,1,1-.481-.487,1.938,1.938,0,0,0,.584-1.39l-.209-1.688.183-.346a9.363,9.363,0,1,0-8.52,0l.183.346-.212,1.73a1.952,1.952,0,0,0,1.957,1.912h4.664a.342.342,0,0,1,0,.683" transform="translate(-123.643 22.724)" fill="#474341"/>
    <path id="路径_435" data-name="路径 435" d="M414.693,490.046h-.022a.241.241,0,0,1-.219-.261,16.217,16.217,0,0,0-.3-5.927,2.124,2.124,0,0,1-1.9-.241,1.738,1.738,0,0,1-.688-1.3,1.47,1.47,0,0,1,.44-1.178.95.95,0,0,1,.485-.255c.264-.045.674.032,1.1.649a7.48,7.48,0,0,1,.853,1.662c.028-.018.056-.036.084-.056a2.478,2.478,0,0,0,.513-.489A1.789,1.789,0,0,1,414.7,481a1.1,1.1,0,0,1,.707-.7.6.6,0,0,1,.58.133.907.907,0,0,1,.165.953,4.494,4.494,0,0,1-.5,1.221,1.512,1.512,0,0,0,1.107.4,1.637,1.637,0,0,0,.951-.428,2.137,2.137,0,0,1-.424-1.61,1.2,1.2,0,0,1,.638-.875.613.613,0,0,1,.607.054.878.878,0,0,1,.338.682,2.493,2.493,0,0,1-.511,1.752l0,0a1.745,1.745,0,0,0,1.58.477.241.241,0,0,1,.114.469,2.227,2.227,0,0,1-2.021-.592h0a2.116,2.116,0,0,1-1.233.549,1.989,1.989,0,0,1-1.428-.487,2.908,2.908,0,0,1-.571.531c-.067.046-.134.09-.2.129a16.512,16.512,0,0,1,.337,6.166.242.242,0,0,1-.24.22m-2.08-8.693a.257.257,0,0,0-.046,0,.491.491,0,0,0-.237.134.976.976,0,0,0-.286.8,1.268,1.268,0,0,0,.489.939A1.657,1.657,0,0,0,414,483.4a7,7,0,0,0-.811-1.593c-.119-.172-.345-.449-.575-.449m2.972-.6a.194.194,0,0,0-.051.007.63.63,0,0,0-.372.386,1.272,1.272,0,0,0,.161,1.063,4.128,4.128,0,0,0,.366-.949c.061-.239.053-.407-.022-.476a.11.11,0,0,0-.08-.032m2.6-.236a.182.182,0,0,0-.071.017.736.736,0,0,0-.352.509,1.635,1.635,0,0,0,.274,1.157,2.03,2.03,0,0,0,.353-1.323.465.465,0,0,0-.131-.334.123.123,0,0,0-.074-.025" transform="translate(-222.047 -181.766)" fill="#b77917"/>
    <path id="路径_436" data-name="路径 436" d="M517.989,543.947a10.134,10.134,0,0,0-.742,6.218c.058.3.523.176.465-.128a9.569,9.569,0,0,1,.694-5.846c.128-.281-.287-.526-.417-.244" transform="translate(-321.76 -242.052)" fill="#b77917"/>
    <path id="路径_437" data-name="路径 437" d="M419.277,680.448H413.4a1.265,1.265,0,0,1-1.229-1.292h0a1.265,1.265,0,0,1,1.229-1.292h6.154a1.265,1.265,0,0,1,1.228,1.292h0a.855.855,0,0,1-.257.74" transform="translate(-222.622 -368.746)" fill="#aeabaa"/>
    <path id="路径_438" data-name="路径 438" d="M413.387,674.9h-5.88a1.635,1.635,0,0,1,0-3.267h6.154a1.6,1.6,0,0,1,1.571,1.633,1.164,1.164,0,0,1-.322.941.342.342,0,1,1-.554-.4c.192-.266.192-.266.192-.541a.921.921,0,0,0-.887-.949h-6.154a.952.952,0,0,0,0,1.9h5.88a.342.342,0,1,1,0,.684" transform="translate(-216.732 -362.856)" fill="#474341"/>
    <path id="路径_439" data-name="路径 439" d="M426.979,727.449h-6.417a.676.676,0,0,1-.674-.674v-1.109a.676.676,0,0,1,.674-.674h6.417a.676.676,0,0,1,.674.674v1.109a.676.676,0,0,1-.674.674" transform="translate(-229.919 -413.291)" fill="#dfdede"/>
    <path id="路径_440" data-name="路径 440" d="M420.519,721.894h-5.308a1.571,1.571,0,1,1,0-3.142h5.308a1.571,1.571,0,1,1,0,3.142m-5.308-2.458a.887.887,0,0,0,0,1.774h5.308a.887.887,0,0,0,0-1.774Z" transform="translate(-224.013 -407.393)" fill="#474341"/>
    <path id="路径_441" data-name="路径 441" d="M353.5,311.485a6.92,6.92,0,0,1,3.452,6.637c-.027.309.456.307.482,0a7.392,7.392,0,0,0-3.691-7.054.241.241,0,0,0-.243.417m3.4,7.845a1.64,1.64,0,0,1-.189,1.08c-.15.272.267.516.417.243a2.177,2.177,0,0,0,.238-1.452c-.052-.305-.517-.175-.465.128m-14.235-5.146a7.134,7.134,0,0,0-1.164,3.7c-.01.311.472.31.482,0a6.627,6.627,0,0,1,1.1-3.459c.17-.261-.248-.5-.417-.244m-1.127,4.9a2.3,2.3,0,0,0,.325,1.7c.168.26.586.018.417-.243a1.8,1.8,0,0,1-.276-1.325c.056-.3-.409-.434-.465-.129" transform="translate(-155.825 -22.027)" fill="#b77917"/>
    <path id="路径_442" data-name="路径 442" d="M272.162,189.948v-1.531a.241.241,0,0,0-.482,0v1.531a.241.241,0,0,0,.482,0m11.051,5.868,1.732-1.151c.257-.171.016-.589-.243-.417L282.97,195.4c-.257.171-.016.589.243.417m-22.943,1.649,1.224,1.225a.241.241,0,0,0,.341-.341l-1.225-1.225a.241.241,0,0,0-.341.341m4.557-5.714.931,1.369c.174.255.592.014.417-.243l-.931-1.369c-.174-.255-.592-.014-.417.243m13.841.66.882-1.1c.193-.24-.147-.583-.341-.341l-.882,1.1c-.193.24.147.583.341.341M273,222.353c-1.551,0-2.767-.846-2.767-1.927a.342.342,0,0,1,.684,0c0,.674.953,1.243,2.082,1.243a2.979,2.979,0,0,0,1.347-.3.342.342,0,0,1,.314.608,3.629,3.629,0,0,1-1.661.38" transform="translate(-78.985 94.088)" fill="#474341"/>
  </g>
</svg>
