<svg xmlns="http://www.w3.org/2000/svg" width="34.348" height="31.53" viewBox="0 0 34.348 31.53">
  <g id="组_1378" data-name="组 1378" transform="translate(-346.783 -124.914) rotate(-30)">
    <path id="路径_391" data-name="路径 391" d="M275.4,395.347,272.354,387l-4.205,7.413-3.2-11.716-.123-.451-.123.451-3.194,11.716L257.308,387l-3.047,8.346-3.069-6.48v12.96H278.47v-12.96Z" transform="translate(-19.974 -88.227)" fill="#ffd865"/>
    <path id="路径_392" data-name="路径 392" d="M272.532,396.232H245.254a.342.342,0,0,1-.342-.342v-12.96a.342.342,0,0,1,.651-.146l2.719,5.742,2.766-7.578a.343.343,0,0,1,.619-.051l3.8,6.691,3.1-11.367a.342.342,0,0,1,.659,0l3.1,11.366,3.8-6.691a.342.342,0,0,1,.619.051l2.766,7.578,2.719-5.742a.342.342,0,0,1,.651.147v12.96a.341.341,0,0,1-.342.342m-26.936-.684H272.19v-11.1l-2.418,5.106a.347.347,0,0,1-.324.195.344.344,0,0,1-.306-.225l-2.793-7.651-3.84,6.77a.342.342,0,0,1-.628-.079l-2.988-10.956-2.988,10.956a.342.342,0,0,1-.628.079l-3.84-6.77-2.793,7.651a.344.344,0,0,1-.306.225.365.365,0,0,1-.325-.195l-2.418-5.106v11.1Z" transform="translate(-14.037 -82.289)" fill="#474341"/>
    <path id="路径_393" data-name="路径 393" d="M463.951,292.546a2.292,2.292,0,1,1-2.292-2.354,2.323,2.323,0,0,1,2.292,2.354" transform="translate(-216.803 -1.189)" fill="#ffb500"/>
    <path id="路径_394" data-name="路径 394" d="M455.73,289.313a2.7,2.7,0,1,1,2.633-2.7,2.669,2.669,0,0,1-2.633,2.7m0-4.709a2.013,2.013,0,1,0,1.949,2.012,1.984,1.984,0,0,0-1.949-2.012" transform="translate(-210.873 4.741)" fill="#474341"/>
    <path id="路径_395" data-name="路径 395" d="M336.7,401.606a1.72,1.72,0,1,1-1.719-1.766,1.743,1.743,0,0,1,1.719,1.766" transform="translate(-97.573 -104.86)" fill="#ffd865"/>
    <path id="路径_396" data-name="路径 396" d="M329.053,397.777a2.109,2.109,0,1,1,2.061-2.108,2.087,2.087,0,0,1-2.061,2.108m0-3.533a1.425,1.425,0,1,0,1.377,1.425,1.4,1.4,0,0,0-1.377-1.425" transform="translate(-91.643 -98.922)" fill="#474341"/>
    <path id="路径_397" data-name="路径 397" d="M613.838,401.606a1.72,1.72,0,1,1-1.719-1.766,1.743,1.743,0,0,1,1.719,1.766" transform="translate(-359.602 -104.86)" fill="#ffd865"/>
    <path id="路径_398" data-name="路径 398" d="M606.189,397.777a2.109,2.109,0,1,1,2.061-2.108,2.088,2.088,0,0,1-2.061,2.108m0-3.533a1.425,1.425,0,1,0,1.377,1.425,1.4,1.4,0,0,0-1.377-1.425" transform="translate(-353.672 -98.922)" fill="#474341"/>
    <path id="路径_399" data-name="路径 399" d="M230.4,453.091a1.272,1.272,0,1,1-1.272-1.307,1.29,1.29,0,0,1,1.272,1.307" transform="translate(2.09 -153.973)" fill="#ffd865"/>
    <path id="路径_400" data-name="路径 400" d="M223.19,448.81a1.649,1.649,0,1,1,1.614-1.649,1.634,1.634,0,0,1-1.614,1.649m0-2.614a.965.965,0,1,0,.93.965.949.949,0,0,0-.93-.965" transform="translate(8.027 -148.043)" fill="#474341"/>
    <path id="路径_401" data-name="路径 401" d="M730.84,453.091a1.272,1.272,0,1,1-1.272-1.307,1.29,1.29,0,0,1,1.272,1.307" transform="translate(-471.072 -153.973)" fill="#ffd865"/>
    <path id="路径_402" data-name="路径 402" d="M723.63,448.81a1.649,1.649,0,1,1,1.614-1.649,1.634,1.634,0,0,1-1.614,1.649m0-2.614a.965.965,0,1,0,.93.965.948.948,0,0,0-.93-.965" transform="translate(-465.134 -148.043)" fill="#474341"/>
    <path id="路径_403" data-name="路径 403" d="M512.218,419.2l-3.059-8.222-4.222,7.353-3.32-11.4.112,17.861h13.124l.15-12.032Z" transform="translate(-256.748 -111.562)" fill="#ffb500"/>
    <path id="路径_404" data-name="路径 404" d="M303.029,331.333h-1.044a.342.342,0,0,1,0-.685h1.044a.342.342,0,1,1,0,.685m-2.391,0H297.09a.342.342,0,0,1,0-.685h3.548a.342.342,0,1,1,0,.685m-14.989,0a.342.342,0,0,1-.011-.684c3.334-.108,6.366-.108,9.833,0a.342.342,0,1,1-.01.684h-.011c-3.451-.107-6.47-.107-9.789,0h-.011m12.377-19.259a.342.342,0,0,1-.342-.368.9.9,0,0,0-.176-.682.947.947,0,0,0-.6-.273.342.342,0,0,1,.026-.683,1.608,1.608,0,0,1,1.075.5,1.544,1.544,0,0,1,.353,1.193.341.341,0,0,1-.34.317" transform="translate(-52.231 -19.982)" fill="#a96d19"/>
  </g>
</svg>
