<svg xmlns="http://www.w3.org/2000/svg" width="18.667" height="18.667" viewBox="0 0 18.667 18.667">
  <g id="组_1487" data-name="组 1487" transform="translate(-31.333 -360)">
    <g id="组_1256" data-name="组 1256" transform="translate(34.733 367.066)" style="isolation: isolate">
      <circle id="椭圆_350" data-name="椭圆 350" cx="1.333" cy="1.333" r="1.333" transform="translate(0 0)"/>
      <circle id="椭圆_351" data-name="椭圆 351" cx="1.333" cy="1.333" r="1.333" transform="translate(4.6 0)"/>
      <circle id="椭圆_352" data-name="椭圆 352" cx="1.333" cy="1.333" r="1.333" transform="translate(9.2 0)"/>
    </g>
    <path id="回复" d="M137.349,128c-5.164,0-9.349,3.735-9.349,8.344a7.942,7.942,0,0,0,3.554,6.639c.012.008-.23,3.684-.23,3.684l3.758-2.2a11.028,11.028,0,0,0,2.206.226c5.163,0,9.378-3.736,9.378-8.346S142.512,128,137.349,128Zm-4.55,9.553a1.171,1.171,0,1,1,1.167-1.171A1.17,1.17,0,0,1,132.8,137.553Zm4.534,0a1.171,1.171,0,1,1,1.167-1.171A1.17,1.17,0,0,1,137.333,137.553Zm4.533,0a1.171,1.171,0,1,1,1.167-1.171A1.17,1.17,0,0,1,141.866,137.553Z" transform="translate(-96.667 232)" fill="#6a6a6a"/>
  </g>
</svg>
