<svg id="组_1179" data-name="组 1179" xmlns="http://www.w3.org/2000/svg" width="14.015" height="21.021" viewBox="0 0 14.015 21.021">
  <path id="减去_77" data-name="减去 77" d="M4.685,16.245a3.442,3.442,0,0,1-.675-.067,3.365,3.365,0,0,1-1.693-.893,3.319,3.319,0,0,1-.409-.485,3.255,3.255,0,0,1-.309-.556,3.206,3.206,0,0,1-.015-2.511h0a11.348,11.348,0,0,0,.834-2.846,4.39,4.39,0,0,0-.07-1.72,2.41,2.41,0,0,0-.206-.517,1.793,1.793,0,0,0-.23-.33,1.068,1.068,0,0,0-.265-.226l-.064-.037v0A3.367,3.367,0,0,1,.936,5.54a3.3,3.3,0,0,1-.5-.653A3.2,3.2,0,0,1,.244,2.046a3.24,3.24,0,0,1,.287-.54A3.3,3.3,0,0,1,.913,1.03a3.356,3.356,0,0,1,1-.709A3.386,3.386,0,0,1,2.5.11a3.426,3.426,0,0,1,.638-.1V.005h.086l.054,0,.067,0,.066,0,.055,0h4.6l.06,0,.062,0,.059,0,.062,0h0a4.3,4.3,0,0,1,.821.1,4.209,4.209,0,0,1,2.054,1.133,4.139,4.139,0,0,1,.495.6,4.057,4.057,0,0,1,.373.686,3.992,3.992,0,0,1,.318,1.565c0,.023,0,.046,0,.068s0,.035,0,.054a14.742,14.742,0,0,1-.119,1.679,14.587,14.587,0,0,1-.3,1.623,14.578,14.578,0,0,1-.478,1.556,14.668,14.668,0,0,1-.642,1.48,14.812,14.812,0,0,1-.8,1.393,14.971,14.971,0,0,1-.939,1.3,15.113,15.113,0,0,1-1.072,1.188A15.22,15.22,0,0,1,6.819,15.5v0h0a3.363,3.363,0,0,1-.98.551A3.4,3.4,0,0,1,4.685,16.245Z" transform="translate(0.874 4.776)" fill="#6a6a6a"/>
  <path id="减去_78" data-name="减去 78" d="M12.922,5.13a1.1,1.1,0,0,1-.213-.021,1.134,1.134,0,0,1-.2-.061,1.121,1.121,0,0,1-.189-.1,1.066,1.066,0,0,1-.166-.132,1.056,1.056,0,0,1-.135-.162,1.081,1.081,0,0,1-.163-.385,1.017,1.017,0,0,1,0-.417,1.078,1.078,0,0,1,.163-.385,1.048,1.048,0,0,1,.135-.162,1.066,1.066,0,0,1,.166-.132,1.121,1.121,0,0,1,.189-.1,1.134,1.134,0,0,1,.2-.061,1.089,1.089,0,0,1,.426,0,1.134,1.134,0,0,1,.2.061,1.121,1.121,0,0,1,.189.1,1.066,1.066,0,0,1,.166.132,1.047,1.047,0,0,1,.135.162,1.077,1.077,0,0,1,.163.385,1.016,1.016,0,0,1,0,.416,1.08,1.08,0,0,1-.163.385,1.055,1.055,0,0,1-.136.162,1.067,1.067,0,0,1-.166.132,1.121,1.121,0,0,1-.189.1,1.133,1.133,0,0,1-.2.061A1.1,1.1,0,0,1,12.922,5.13ZM1.967,3.847a1.976,1.976,0,0,1-.383-.038,2.036,2.036,0,0,1-.709-.287,1.924,1.924,0,0,1-.3-.238,1.893,1.893,0,0,1-.244-.292A1.941,1.941,0,0,1,.039,2.3a1.832,1.832,0,0,1,0-.75A1.942,1.942,0,0,1,.332.855,1.9,1.9,0,0,1,.576.563a1.924,1.924,0,0,1,.3-.238A2.036,2.036,0,0,1,1.584.038a1.956,1.956,0,0,1,.767,0,2.036,2.036,0,0,1,.709.287A1.888,1.888,0,0,1,3.6.855a1.951,1.951,0,0,1,.181.333,1.931,1.931,0,0,1,.113.36,1.832,1.832,0,0,1,0,.75,1.941,1.941,0,0,1-.294.694,1.892,1.892,0,0,1-.244.292,1.924,1.924,0,0,1-.3.238,2.036,2.036,0,0,1-.709.287A1.978,1.978,0,0,1,1.967,3.847Zm8.269-.285a1.32,1.32,0,0,1-.255-.025,1.363,1.363,0,0,1-.246-.073,1.348,1.348,0,0,1-.227-.118,1.26,1.26,0,0,1-.361-.353,1.3,1.3,0,0,1-.121-.222,1.289,1.289,0,0,1-.075-.24,1.217,1.217,0,0,1,0-.5,1.288,1.288,0,0,1,.075-.24,1.3,1.3,0,0,1,.121-.222,1.268,1.268,0,0,1,.163-.195,1.287,1.287,0,0,1,.2-.159,1.359,1.359,0,0,1,.473-.192,1.3,1.3,0,0,1,.511,0,1.357,1.357,0,0,1,.472.192,1.287,1.287,0,0,1,.2.159,1.263,1.263,0,0,1,.163.195,1.294,1.294,0,0,1,.2.462,1.22,1.22,0,0,1,0,.5,1.294,1.294,0,0,1-.2.462,1.264,1.264,0,0,1-.163.195,1.282,1.282,0,0,1-.2.159,1.347,1.347,0,0,1-.227.118,1.361,1.361,0,0,1-.246.073A1.32,1.32,0,0,1,10.236,3.562Zm-3.78-.356a1.533,1.533,0,0,1-.3-.03,1.583,1.583,0,0,1-.551-.224,1.5,1.5,0,0,1-.232-.186,1.471,1.471,0,0,1-.19-.227A1.51,1.51,0,0,1,4.956,2a1.426,1.426,0,0,1,0-.583A1.511,1.511,0,0,1,5.185.879a1.482,1.482,0,0,1,.19-.227A1.5,1.5,0,0,1,5.606.466,1.587,1.587,0,0,1,6.158.243a1.518,1.518,0,0,1,.6,0,1.587,1.587,0,0,1,.552.223,1.5,1.5,0,0,1,.232.185,1.484,1.484,0,0,1,.189.227,1.512,1.512,0,0,1,.228.539,1.426,1.426,0,0,1,0,.583,1.511,1.511,0,0,1-.228.539,1.471,1.471,0,0,1-.189.227,1.5,1.5,0,0,1-.232.186,1.583,1.583,0,0,1-.552.224A1.536,1.536,0,0,1,6.456,3.206Z" transform="translate(0 0)"/>
</svg>
