<svg xmlns="http://www.w3.org/2000/svg" width="18.667" height="18.692" viewBox="0 0 18.667 18.692">
  <path id="设置" d="M68,62.868h-.56a8.176,8.176,0,0,1-.673,1.376l.4.623a2.093,2.093,0,0,1-.5,2.8L65.1,68.8a1.83,1.83,0,0,1-2.637-.531l-.39-.607a5.885,5.885,0,0,1-2.554.064l-.293.54a1.807,1.807,0,0,1-2.549.725L55.056,68a2.051,2.051,0,0,1-.683-2.708l.3-.544a8,8,0,0,1-1.04-1.881h-.561A1.926,1.926,0,0,1,51.2,60.889V58.9a1.926,1.926,0,0,1,1.867-1.982h.572a8.06,8.06,0,0,1,.669-1.35l-.4-.623a2.094,2.094,0,0,1,.5-2.8l1.569-1.136a1.831,1.831,0,0,1,2.637.531l.4.616a7.051,7.051,0,0,1,1.524-.169,7.124,7.124,0,0,1,1.013.108l.291-.537a1.809,1.809,0,0,1,2.55-.726l1.618.991a2.052,2.052,0,0,1,.683,2.708l-.293.538a8.024,8.024,0,0,1,1.033,1.848H68A1.929,1.929,0,0,1,69.867,58.9v1.983A1.928,1.928,0,0,1,68,62.868Zm-7.466-6.956a4.012,4.012,0,1,0,3.727,4A3.872,3.872,0,0,0,60.533,55.912Z" transform="translate(-51.2 -50.569)"/>
</svg>
