<svg xmlns="http://www.w3.org/2000/svg" xmlns:xlink="http://www.w3.org/1999/xlink" width="45" height="45" viewBox="0 0 45 45">
  <defs>
    <radialGradient id="radial-gradient" cx="0.5" cy="0.5" r="0.5" gradientUnits="objectBoundingBox">
      <stop offset="0"/>
      <stop offset="1" stop-color="#1d1d1d"/>
    </radialGradient>
    <radialGradient id="radial-gradient-2" cx="0.5" cy="0.5" r="0.5" gradientUnits="objectBoundingBox">
      <stop offset="0"/>
      <stop offset="1"/>
    </radialGradient>
  </defs>
  <g id="组_1480" data-name="组 1480" transform="translate(-241 -243)">
    <g id="组_1326" data-name="组 1326" transform="translate(4333 -839)">
      <rect id="矩形_1262" data-name="矩形 1262" width="45" height="45" rx="22.5" transform="translate(-4092 1082)" fill="#2e2e2e"/>
      <rect id="矩形_1263" data-name="矩形 1263" width="34" height="34" rx="17" transform="translate(-4082 1091)" opacity="0.4" fill="url(#radial-gradient)"/>
      <rect id="矩形_1264" data-name="矩形 1264" width="21" height="21" rx="10.5" transform="translate(-4071 1102)" opacity="0.4" fill="url(#radial-gradient-2)"/>
    </g>
    <g id="店铺_1_1_" data-name="店铺 (1) (1)" transform="translate(249.921 211.058)">
      <path id="路径_338" data-name="路径 338" d="M112.158,544.146a3.154,3.154,0,0,1-1.025.114,3.667,3.667,0,0,1-3.418-2.393,3.84,3.84,0,0,1-3.418,2.393,3.667,3.667,0,0,1-3.418-2.393,3.84,3.84,0,0,1-3.418,2.393,3.667,3.667,0,0,1-3.418-2.393,3.84,3.84,0,0,1-3.418,2.393,3.154,3.154,0,0,1-1.025-.114v7.747a1.816,1.816,0,0,0,1.481,1.6h19.71a1.816,1.816,0,0,0,1.481-1.6v-7.747Z" transform="translate(-87.207 -485.87)" fill="#fff"/>
      <path id="路径_339" data-name="路径 339" d="M27.344,52.465,24.951,46.2H2.393L0,52.465a3.357,3.357,0,0,0,3.418,3.418,3.357,3.357,0,0,0,3.418-3.418,3.4,3.4,0,0,0,1.709,2.962,3.632,3.632,0,0,0,3.418,0,3.4,3.4,0,0,0,1.709-2.962,3.482,3.482,0,0,0,1.709,3.076,3.1,3.1,0,0,0,3.418,0,3.624,3.624,0,0,0,1.709-2.848v0a3.357,3.357,0,0,0,1.709,2.848,3.3,3.3,0,0,0,3.532,0,3.633,3.633,0,0,0,1.6-3.076Zm-4.557-7.519H4.557a1.076,1.076,0,0,1-1.139-1.139,1.142,1.142,0,0,1,1.139-1.139H22.786a1.142,1.142,0,0,1,1.139,1.139A1.076,1.076,0,0,1,22.786,44.946Z" fill="#fff"/>
    </g>
  </g>
</svg>
