<svg xmlns="http://www.w3.org/2000/svg" xmlns:xlink="http://www.w3.org/1999/xlink" width="45" height="45" viewBox="0 0 45 45">
  <defs>
    <radialGradient id="radial-gradient" cx="0.5" cy="0.5" r="0.5" gradientUnits="objectBoundingBox">
      <stop offset="0"/>
      <stop offset="1" stop-color="#1d1d1d"/>
    </radialGradient>
    <radialGradient id="radial-gradient-2" cx="0.5" cy="0.5" r="0.5" gradientUnits="objectBoundingBox">
      <stop offset="0"/>
      <stop offset="1"/>
    </radialGradient>
  </defs>
  <g id="组_1479" data-name="组 1479" transform="translate(-165 -243)">
    <g id="组_1325" data-name="组 1325" transform="translate(4257 -839)">
      <rect id="矩形_1262" data-name="矩形 1262" width="45" height="45" rx="22.5" transform="translate(-4092 1082)" fill="#2e2e2e"/>
      <rect id="矩形_1263" data-name="矩形 1263" width="34" height="34" rx="17" transform="translate(-4082 1091)" opacity="0.4" fill="url(#radial-gradient)"/>
      <rect id="矩形_1264" data-name="矩形 1264" width="21" height="21" rx="10.5" transform="translate(-4071 1102)" opacity="0.4" fill="url(#radial-gradient-2)"/>
    </g>
    <path id="拼团" d="M86.958,31.629a10.3,10.3,0,1,0-14.292,9.5,6.688,6.688,0,0,0-2.308,5.094c0,1.919,4.537,2,6.3,2s6.3-.085,6.3-2a6.688,6.688,0,0,0-2.308-5.094,10.306,10.306,0,0,0,6.315-9.5Zm-6.028,3.805a5.71,5.71,0,0,1-4.276,1.919h0a5.709,5.709,0,0,1-4.283-1.926.573.573,0,1,1,.872-.742,4.579,4.579,0,0,0,6.858-.04.573.573,0,1,1,.829.79ZM66.853,44.26c-.137.309-.256.61-.353.9a4.379,4.379,0,0,0-.263,1.351.687.687,0,1,0,1.373,0,3.157,3.157,0,0,1,.193-.917q.134-.4.305-.777.239-.537.525-1.051a.687.687,0,0,0-.389-1,4.18,4.18,0,0,1-2.287-6.2.687.687,0,0,0-1.164-.731,5.554,5.554,0,0,0,2.283,7.944c-.076.156-.151.317-.224.481Zm22.477-5.47a5.53,5.53,0,0,0-.846-2.948.687.687,0,0,0-1.164.73,4.18,4.18,0,0,1-2.287,6.2.687.687,0,0,0-.389,1q.286.513.525,1.051.171.381.306.777a3.152,3.152,0,0,1,.193.916.687.687,0,0,0,1.373,0,4.358,4.358,0,0,0-.263-1.351q-.155-.458-.353-.9c-.072-.163-.147-.324-.224-.48a5.553,5.553,0,0,0,3.129-5Z" transform="translate(111.32 230.636)" fill="#fff"/>
  </g>
</svg>
