<svg xmlns="http://www.w3.org/2000/svg" xmlns:xlink="http://www.w3.org/1999/xlink" width="45" height="45" viewBox="0 0 45 45">
  <defs>
    <radialGradient id="radial-gradient" cx="0.5" cy="0.5" r="0.5" gradientUnits="objectBoundingBox">
      <stop offset="0"/>
      <stop offset="1" stop-color="#1d1d1d"/>
    </radialGradient>
    <radialGradient id="radial-gradient-2" cx="0.5" cy="0.5" r="0.5" gradientUnits="objectBoundingBox">
      <stop offset="0"/>
      <stop offset="1"/>
    </radialGradient>
  </defs>
  <g id="组_1476" data-name="组 1476" transform="translate(-15 -243)">
    <g id="组_1323" data-name="组 1323" transform="translate(4107 -839)">
      <rect id="矩形_1262" data-name="矩形 1262" width="45" height="45" rx="22.5" transform="translate(-4092 1082)" fill="#2e2e2e"/>
      <rect id="矩形_1263" data-name="矩形 1263" width="34" height="34" rx="17" transform="translate(-4082 1091)" opacity="0.4" fill="url(#radial-gradient)"/>
      <rect id="矩形_1264" data-name="矩形 1264" width="21" height="21" rx="10.5" transform="translate(-4071 1102)" opacity="0.4" fill="url(#radial-gradient-2)"/>
    </g>
    <path id="推荐_1_" data-name="推荐 (1)" d="M197.452,85.6a5.384,5.384,0,0,0-5.384,5.385v21.39l9.736-7.3,9.736,7.3V85.6Zm7.754,14.242-3.4-1.789-3.4,1.789.65-3.788L196.3,93.367l3.8-.553,1.7-3.447,1.7,3.447,3.8.553-2.752,2.683Z" transform="translate(-163.73 166.493)" fill="#fff"/>
  </g>
</svg>
