<svg xmlns="http://www.w3.org/2000/svg" xmlns:xlink="http://www.w3.org/1999/xlink" width="45" height="45" viewBox="0 0 45 45">
  <defs>
    <radialGradient id="radial-gradient" cx="0.5" cy="0.5" r="0.5" gradientUnits="objectBoundingBox">
      <stop offset="0"/>
      <stop offset="1" stop-color="#1d1d1d"/>
    </radialGradient>
    <radialGradient id="radial-gradient-2" cx="0.5" cy="0.5" r="0.5" gradientUnits="objectBoundingBox">
      <stop offset="0"/>
      <stop offset="1"/>
    </radialGradient>
  </defs>
  <g id="组_1481" data-name="组 1481" transform="translate(-315 -243)">
    <g id="组_1327" data-name="组 1327" transform="translate(4407 -839)">
      <rect id="矩形_1262" data-name="矩形 1262" width="45" height="45" rx="22.5" transform="translate(-4092 1082)" fill="#2e2e2e"/>
      <rect id="矩形_1263" data-name="矩形 1263" width="34" height="34" rx="17" transform="translate(-4082 1091)" opacity="0.4" fill="url(#radial-gradient)"/>
      <rect id="矩形_1264" data-name="矩形 1264" width="21" height="21" rx="10.5" transform="translate(-4071 1102)" opacity="0.4" fill="url(#radial-gradient-2)"/>
    </g>
    <path id="优惠" d="M71.91,182.356a4.853,4.853,0,0,0,.284.843.97.97,0,0,0,.357.443.629.629,0,0,0,.5.052.607.607,0,0,0,.5-.528,3.346,3.346,0,0,0-.146-1.22c-.028-.109-.057-.206-.087-.3a2.375,2.375,0,0,0-.37-.784.613.613,0,0,0-.678-.2.629.629,0,0,0-.41.286.97.97,0,0,0-.1.558c0,.043.014.1.019.143A5.1,5.1,0,0,0,71.91,182.356Zm7.627,3.849a.624.624,0,0,0,.691.214.61.61,0,0,0,.5-.529,3.336,3.336,0,0,0-.143-1.219,2.855,2.855,0,0,0-.455-1.075.612.612,0,0,0-.677-.2.642.642,0,0,0-.42.284,1,1,0,0,0-.109.551,4.326,4.326,0,0,0,.148.856A3.045,3.045,0,0,0,79.537,186.206ZM88.012,185a5.17,5.17,0,0,1-1.434,1.673l.239.927a2.5,2.5,0,0,1-1.8,3.046l-16.96,4.364a2.378,2.378,0,0,1-.463.069v.389a.976.976,0,0,0,.976.976H86.082a.975.975,0,0,0,.976-.976v-2.09c2.063-.373,3.305-1.962,3.305-4.332A4.086,4.086,0,0,0,88.012,185Zm-20.336,8.531,16.961-4.363a.975.975,0,0,0,.7-1.188l-.521-2.025a3.754,3.754,0,0,0,2.24-2.817,5.185,5.185,0,0,0-.119-2.2q-.053-.205-.119-.406c-.015-.045-.032-.086-.047-.129-.03-.086-.06-.171-.094-.253-.02-.05-.043-.1-.064-.144-.032-.073-.064-.145-.1-.214-.025-.049-.052-.1-.078-.144-.034-.064-.068-.128-.1-.188s-.059-.093-.088-.139-.075-.114-.114-.168-.065-.087-.1-.131-.08-.1-.121-.152-.071-.081-.108-.12-.086-.092-.132-.136-.076-.074-.116-.109-.092-.082-.14-.12-.082-.066-.125-.1-.1-.072-.148-.1l-.133-.085c-.051-.031-.1-.061-.157-.09s-.092-.049-.139-.073-.111-.05-.167-.075-.1-.04-.145-.058-.117-.042-.177-.06-.1-.032-.148-.045-.125-.031-.188-.045-.1-.022-.151-.032-.134-.019-.2-.028c-.05-.006-.1-.014-.151-.018-.072-.007-.145-.008-.218-.012-.049,0-.1-.005-.146-.006-.12,0-.242,0-.366.012l-.52-2.024a.939.939,0,0,0-.064-.174c-.007-.017-.018-.033-.027-.049a.963.963,0,0,0-.064-.105c-.013-.018-.027-.034-.04-.05a.891.891,0,0,0-.078-.083.5.5,0,0,0-.048-.043.98.98,0,0,0-.094-.069c-.017-.011-.033-.022-.05-.031a.918.918,0,0,0-.124-.06l-.034-.014a.916.916,0,0,0-.17-.043l-.045,0a.979.979,0,0,0-.126-.007.991.991,0,0,0-.223.029L63.99,179.2a.974.974,0,0,0-.7,1.187l.52,2.019c-1.926.87-2.745,2.725-2.151,5.032.036.14.076.276.119.408.015.043.03.083.045.124.032.089.063.176.1.26.02.048.041.092.063.14.032.073.064.148.1.22.023.047.049.093.074.139.036.066.071.132.109.195.027.046.057.089.085.133.039.059.077.119.118.175s.063.085.095.125.083.107.127.158l.1.115c.045.048.09.1.136.141s.075.07.113.1.1.085.146.125l.12.092q.075.057.155.109c.041.029.084.056.127.082s.11.063.166.093.088.047.132.069.117.053.176.078.091.039.137.055c.062.024.124.043.187.062l.1.031.039.012c.066.018.135.032.2.047.046.01.091.021.138.029.074.012.15.022.226.031l.128.016c.092.008.187.011.282.012.028,0,.055,0,.084,0,.125,0,.254,0,.383-.015l.52,2.02a.924.924,0,0,0,.064.172c.008.017.018.033.027.05a.406.406,0,0,0,.022.035.768.768,0,0,0,.042.069c.013.018.027.035.04.052a1.059,1.059,0,0,0,.077.082c.016.015.032.03.049.044a.854.854,0,0,0,.093.068l.05.033a.985.985,0,0,0,.126.059l.031.014a.9.9,0,0,0,.171.042l.042,0a.9.9,0,0,0,.129.006.954.954,0,0,0,.14-.018c.028,0,.054,0,.082-.011Zm12.406-10.934a1.6,1.6,0,0,1,.7.274,1.891,1.891,0,0,1,.548.615,3.848,3.848,0,0,1,.374.963,2.532,2.532,0,0,1-.064,1.812,1.807,1.807,0,0,1-1.223.9,2,2,0,0,1-1.024.01,1.675,1.675,0,0,1-.852-.558,2.865,2.865,0,0,1-.553-1.155,2.958,2.958,0,0,1-.006-1.854,1.7,1.7,0,0,1,1.253-.945,2.183,2.183,0,0,1,.846-.066Zm-2.777-3.63a2.5,2.5,0,0,1,.143-.389.378.378,0,0,1,.254-.181.416.416,0,0,1,.315.031.372.372,0,0,1,.18.246,1.258,1.258,0,0,1-.1.531l-.764,2.442-2.126,6.794c-.07.25-.186.4-.343.436a.465.465,0,0,1-.3-.034.335.335,0,0,1-.206-.235.594.594,0,0,1,.041-.333l2.068-6.63.836-2.68ZM70.677,181.4a1.54,1.54,0,0,1,.395-.936,1.956,1.956,0,0,1,.984-.538,2.233,2.233,0,0,1,.849-.067,1.539,1.539,0,0,1,.705.284,1.973,1.973,0,0,1,.546.621,3.733,3.733,0,0,1,.349.884c.008.027.017.049.024.077a2.53,2.53,0,0,1-.064,1.812,1.81,1.81,0,0,1-1.222.9,2.022,2.022,0,0,1-1.019.011,1.629,1.629,0,0,1-.849-.562,2.915,2.915,0,0,1-.55-1.155,4.431,4.431,0,0,1-.156-1.086C70.669,181.56,70.67,181.475,70.677,181.4Zm-3.74,4.216a.817.817,0,0,1,.508-.31l1.578-.406a.82.82,0,0,1,.6.025.63.63,0,0,1,.225.868.818.818,0,0,1-.511.31l-1.578.406a.824.824,0,0,1-.59-.026.571.571,0,0,1-.3-.384A.584.584,0,0,1,66.937,185.612Z" transform="translate(261.943 79.918)" fill="#fff"/>
  </g>
</svg>
